<svg width="40" height="40" viewBox="0 0 40 40" fill="none" xmlns="http://www.w3.org/2000/svg">
<rect width="40" height="40" rx="20" fill="#FBBF00"/>
<path fill-rule="evenodd" clip-rule="evenodd" d="M28.9238 24.4543H16.1212C15.3735 24.4543 14.7538 23.8553 14.7538 23.1128C14.7538 22.3703 15.3828 21.767 16.1291 21.767C16.2346 21.767 28.999 20.2989 28.999 20.2989C29.3405 20.2609 29.599 19.974 29.599 19.6281V12.9793C29.599 12.6081 29.2983 12.3085 28.9278 12.3085H13.4496L12.5727 10.0346C12.4712 9.77307 12.222 9.6001 11.9437 9.6001H8.67352C7.76629 9.62963 7.78344 10.9374 8.67747 10.9501H11.4835L15.2047 20.5899C14.1762 20.9696 13.4074 21.9484 13.4074 23.1085C13.4074 24.5978 14.6404 25.8001 16.1291 25.8001H28.9278C29.8522 25.7368 29.7968 24.4923 28.9238 24.4543ZM20.1549 13.6543V16.3543L24.2018 16.3501L24.1425 13.6543H20.1549ZM28.2566 16.3501H25.5521L25.556 13.6501H28.2566V16.3501ZM18.8046 16.3501L18.8007 13.6543H13.9692L15.0109 16.3501H18.8046Z" fill="#4A525F"/>
<path d="M16.1001 29.1751C16.1001 30.2935 15.1929 31.2001 14.0747 31.2001C12.9565 31.2001 12.0492 30.2935 12.0492 29.1751C12.0492 28.0567 12.9565 27.1501 14.0747 27.1501C15.1929 27.1501 16.1001 28.0567 16.1001 29.1751Z" fill="#4A525F"/>
<path d="M28.2527 29.1751C28.2527 30.2935 27.3454 31.2001 26.2272 31.2001C25.109 31.2001 24.2018 30.2935 24.2018 29.1751C24.2018 28.0567 25.109 27.1501 26.2272 27.1501C27.3454 27.1501 28.2527 28.0567 28.2527 29.1751Z" fill="#4A525F"/>
</svg>
