<svg width="18" height="30" viewBox="0 0 18 30" fill="none" xmlns="http://www.w3.org/2000/svg">
<path d="M13.8501 29.425L0.693348 16.5558C0.219842 16.0992 0 15.5919 0 15C0 14.4081 0.236753 13.867 0.693348 13.4273L13.8501 0.574972C14.239 0.20293 14.6956 0 15.2537 0C16.3867 0 17.2661 0.879368 17.2661 1.99549C17.2661 2.53664 17.0462 3.06088 16.6573 3.44983L4.80271 14.9831L16.6573 26.5502C17.0462 26.9391 17.2661 27.4464 17.2661 28.0045C17.2661 29.1206 16.3867 30 15.2537 30C14.7125 30 14.239 29.7971 13.8501 29.425Z" fill="#325C87"/>
</svg>
