<svg width="18" height="30" viewBox="0 0 18 30" fill="none" xmlns="http://www.w3.org/2000/svg">
<path d="M4.14994 0.574972L17.3067 13.4442C17.7802 13.9008 18 14.4081 18 15C18 15.5919 17.7632 16.133 17.3067 16.5727L4.14994 29.425C3.76099 29.7971 3.3044 30 2.74634 30C1.6133 30 0.733934 29.1206 0.733934 28.0045C0.733934 27.4634 0.953777 26.9391 1.34273 26.5502L13.1973 15.0169L1.34273 3.44983C0.953777 3.06088 0.733934 2.55355 0.733934 1.99549C0.733934 0.879369 1.6133 0 2.74634 0C3.28749 0 3.76099 0.202931 4.14994 0.574972Z" fill="#325C87"/>
</svg>
