<svg width="29" height="29" viewBox="0 0 29 29" fill="none" xmlns="http://www.w3.org/2000/svg">
<path fill-rule="evenodd" clip-rule="evenodd" d="M28.0921 19.9432H10.9034C9.89957 19.9432 9.06749 19.1389 9.06749 18.142C9.06749 17.1451 9.91197 16.3352 10.914 16.3352C11.0556 16.3352 28.1931 14.3641 28.1931 14.3641C28.6516 14.3131 28.9986 13.9279 28.9986 13.4635V4.53693C28.9986 4.03849 28.5949 3.63634 28.0975 3.63634H7.31657L6.13926 0.583416C6.00293 0.232247 5.66833 1.52588e-05 5.29478 1.52588e-05H0.904199C-0.313832 0.0396609 -0.290817 1.79552 0.90951 1.81252H4.67691L9.67296 14.7549C8.29205 15.2647 7.25991 16.5787 7.25991 18.1363C7.25991 20.1358 8.91523 21.75 10.914 21.75H28.0975C29.3385 21.6651 29.2641 19.9942 28.0921 19.9432ZM16.319 5.44318V9.06818L21.7524 9.06252L21.6727 5.44318H16.319ZM27.1963 9.06252H23.5652L23.5706 5.43752H27.1963V9.06252ZM14.5061 9.06252L14.5008 5.44318H8.0141L9.41271 9.06252H14.5061Z" fill="#4A525F"/>
<path d="M10.8751 26.2813C10.8751 27.7828 9.65703 29 8.15573 29C6.65444 29 5.43641 27.7828 5.43641 26.2813C5.43641 24.7797 6.65444 23.5625 8.15573 23.5625C9.65703 23.5625 10.8751 24.7797 10.8751 26.2813Z" fill="#4A525F"/>
<path d="M27.191 26.2813C27.191 27.7828 25.973 29 24.4717 29C22.9704 29 21.7524 27.7828 21.7524 26.2813C21.7524 24.7797 22.9704 23.5625 24.4717 23.5625C25.973 23.5625 27.191 24.7797 27.191 26.2813Z" fill="#4A525F"/>
</svg>
