<svg width="26" height="30" viewBox="0 0 26 30" fill="none" xmlns="http://www.w3.org/2000/svg">
<path d="M4.72597 30H21.6188C24.3912 30 26 28.3977 26 25.3362V10.5293C26 7.46781 24.3768 5.86552 21.274 5.86552H19.2486C19.1768 2.66094 16.4331 0 13 0C9.58121 0 6.8232 2.66094 6.75138 5.86552H4.72597C1.6232 5.86552 0 7.46781 0 10.5293V25.3362C0 28.3977 1.6232 30 4.72597 30ZM13 2.53219C14.968 2.53219 16.4188 4.00572 16.4762 5.86552H9.52376C9.58121 4.00572 11.032 2.53219 13 2.53219ZM4.91271 27.1531C3.59116 27.1531 2.85856 26.4664 2.85856 25.0787V10.7868C2.85856 9.41345 3.59116 8.72675 4.91271 8.72675H21.0873C22.3945 8.72675 23.1414 9.41345 23.1414 10.7868V25.0787C23.1414 26.4664 22.3945 27.1531 21.432 27.1531H4.91271Z" fill="#071A36"/>
</svg>
