<svg width="71" height="70" viewBox="0 0 71 70" fill="none" xmlns="http://www.w3.org/2000/svg">
<path fill-rule="evenodd" clip-rule="evenodd" d="M24.8552 4.81971C25.3538 3.93785 26.459 3.63522 27.3236 4.14375L43.5886 13.71C44.4532 14.2186 44.7499 15.3457 44.2513 16.2276C43.7527 17.1094 42.6476 17.4121 41.783 16.9035L25.518 7.33724C24.6534 6.8287 24.3566 5.70156 24.8552 4.81971Z" fill="#071A36"/>
<path fill-rule="evenodd" clip-rule="evenodd" d="M31.7887 0.851884C32.6296 0.366083 33.5831 0.110352 34.5537 0.110352C35.5244 0.110352 36.478 0.366104 37.3189 0.851944C37.3202 0.852686 37.3215 0.853428 37.3227 0.854171L50.2448 8.25675C51.0858 8.74356 51.7844 9.44353 52.2704 10.2864C52.7564 11.1294 53.0128 12.0856 53.0137 13.0592V27.8682C53.0128 28.8418 52.7564 29.798 52.2704 30.6409C51.7844 31.4838 51.0858 32.1838 50.2448 32.6706L50.2376 32.6747L37.3227 40.0732C37.3216 40.0738 37.3205 40.0745 37.3194 40.0751C36.4784 40.5611 35.5246 40.817 34.5537 40.817C33.5829 40.817 32.6292 40.5612 31.7882 40.0752C31.787 40.0745 31.7859 40.0739 31.7847 40.0732L18.8699 32.6747L18.8628 32.6706C18.0217 32.1838 17.3231 31.4838 16.8371 30.6409C16.3511 29.798 16.0947 28.8418 16.0938 27.8682V13.0592C16.0947 12.0856 16.3511 11.1294 16.8371 10.2864C17.3231 9.44353 18.0217 8.74356 18.8628 8.25676L18.8699 8.25264L31.7887 0.851884ZM34.5537 3.81165C34.2297 3.81165 33.9114 3.89716 33.6307 4.05959L33.6236 4.06371L20.7087 11.4622C20.7078 11.4627 20.7068 11.4633 20.7058 11.4639C20.4268 11.6261 20.195 11.8587 20.0335 12.1387C19.8717 12.4195 19.7862 12.7379 19.7857 13.0622V27.8652C19.7862 28.1894 19.8717 28.5079 20.0335 28.7886C20.195 29.0686 20.4268 29.3013 20.7058 29.4635C20.7068 29.4641 20.7078 29.4646 20.7087 29.4652L33.6308 36.8678C33.9114 37.0302 34.2297 37.1157 34.5537 37.1157C34.8778 37.1157 35.1961 37.0302 35.4767 36.8678L35.4839 36.8637L48.3988 29.4652C48.3997 29.4646 48.4007 29.4641 48.4017 29.4635C48.6807 29.3013 48.9125 29.0686 49.074 28.7886C49.236 28.5077 49.3214 28.1889 49.3218 27.8644V13.063C49.3214 12.7385 49.236 12.4197 49.074 12.1387C48.9125 11.8587 48.6807 11.6261 48.4017 11.4639C48.4007 11.4633 48.3997 11.4627 48.3988 11.4622L35.4767 4.0596C35.1961 3.89717 34.8778 3.81165 34.5537 3.81165Z" fill="#071A36"/>
<path fill-rule="evenodd" clip-rule="evenodd" d="M17.2813 10.4485C17.779 9.61398 18.8801 9.32882 19.7405 9.81154L34.5524 18.1211L49.3643 9.81154C50.2247 9.32882 51.3258 9.61398 51.8235 10.4485C52.3213 11.283 52.0272 12.3508 51.1668 12.8335L35.4537 21.6487C34.8961 21.9615 34.2087 21.9615 33.6511 21.6487L17.938 12.8335C17.0775 12.3508 16.7835 11.283 17.2813 10.4485Z" fill="#071A36"/>
<path fill-rule="evenodd" clip-rule="evenodd" d="M34.5528 19.0435C35.3371 19.0435 35.9728 19.8504 35.9728 20.8459V39.0144C35.9728 40.0098 35.3371 40.8168 34.5528 40.8168C33.7686 40.8168 33.1328 40.0098 33.1328 39.0144V20.8459C33.1328 19.8504 33.7686 19.0435 34.5528 19.0435Z" fill="#071A36"/>
<path fill-rule="evenodd" clip-rule="evenodd" d="M8.76149 33.2196C9.2601 32.3378 10.3652 32.0351 11.2299 32.5437L27.4948 42.1099C28.3595 42.6185 28.6562 43.7456 28.1576 44.6275C27.659 45.5093 26.5538 45.812 25.6892 45.3034L9.42425 35.7371C8.55961 35.2286 8.26289 34.1015 8.76149 33.2196Z" fill="#071A36"/>
<path fill-rule="evenodd" clip-rule="evenodd" d="M15.695 29.2518C16.5359 28.766 17.4894 28.5103 18.46 28.5103C19.4306 28.5103 20.3842 28.766 21.2251 29.2518C21.2264 29.2526 21.2277 29.2533 21.229 29.2541L34.151 36.6566C34.992 37.1435 35.6906 37.8434 36.1766 38.6864C36.6626 39.5293 36.919 40.4855 36.92 41.4591V56.2681C36.919 57.2417 36.6626 58.1979 36.1766 59.0408C35.6906 59.8837 34.9921 60.5837 34.151 61.0705L34.1439 61.0746L21.229 68.4731C21.2279 68.4737 21.2268 68.4744 21.2257 68.475C20.3846 68.9611 19.4308 69.2169 18.46 69.2169C17.4892 69.2169 16.5355 68.9611 15.6944 68.4751C15.6933 68.4744 15.6921 68.4738 15.691 68.4731L2.77613 61.0746L2.769 61.0705C1.92795 60.5837 1.22938 59.8837 0.74337 59.0408C0.257359 58.1979 0.000996103 57.2417 0 56.2681V41.4591C0.000996103 40.4855 0.257358 39.5293 0.74337 38.6864C1.22938 37.8434 1.92795 37.1435 2.769 36.6567L2.77612 36.6525L15.695 29.2518ZM18.46 32.2115C18.136 32.2115 17.8176 32.2971 17.537 32.4595L17.5299 32.4636L4.615 39.8621C4.61403 39.8626 4.61306 39.8632 4.61209 39.8638C4.33304 40.026 4.10123 40.2586 3.93979 40.5386C3.77792 40.8194 3.69247 41.1378 3.692 41.4621V56.2651C3.69247 56.5893 3.77792 56.9078 3.93979 57.1885C4.10123 57.4685 4.33304 57.7012 4.61209 57.8634C4.61306 57.864 4.61403 57.8645 4.615 57.8651L17.537 65.2677C17.8176 65.4301 18.136 65.5156 18.46 65.5156C18.784 65.5156 19.1024 65.4301 19.383 65.2677L19.3901 65.2636L32.305 57.8651C32.306 57.8645 32.3069 57.864 32.3079 57.8634C32.587 57.7012 32.8188 57.4685 32.9802 57.1885C33.1422 56.9076 33.2277 56.5888 33.228 56.2643V41.4629C33.2277 41.1384 33.1422 40.8196 32.9802 40.5386C32.8188 40.2587 32.587 40.026 32.3079 39.8638C32.3069 39.8632 32.306 39.8626 32.305 39.8621L19.383 32.4595C19.1024 32.2971 18.784 32.2115 18.46 32.2115Z" fill="#071A36"/>
<path fill-rule="evenodd" clip-rule="evenodd" d="M1.18946 38.8484C1.68721 38.0139 2.78825 37.7287 3.64872 38.2114L18.4606 46.521L33.2725 38.2114C34.1329 37.7287 35.234 38.0139 35.7317 38.8484C36.2295 39.6829 35.9355 40.7507 35.075 41.2334L19.3619 50.0486C18.8043 50.3614 18.1169 50.3614 17.5593 50.0486L1.84621 41.2334C0.985749 40.7507 0.69171 39.6829 1.18946 38.8484Z" fill="#071A36"/>
<path fill-rule="evenodd" clip-rule="evenodd" d="M18.4591 47.4434C19.2433 47.4434 19.8791 48.2503 19.8791 49.2458V67.4143C19.8791 68.4097 19.2433 69.2167 18.4591 69.2167C17.6748 69.2167 17.0391 68.4097 17.0391 67.4143V49.2458C17.0391 48.2503 17.6748 47.4434 18.4591 47.4434Z" fill="#071A36"/>
<path fill-rule="evenodd" clip-rule="evenodd" d="M42.8416 33.2196C43.3402 32.3378 44.4453 32.0351 45.3099 32.5437L61.5749 42.1099C62.4395 42.6185 62.7363 43.7456 62.2376 44.6275C61.739 45.5093 60.6339 45.812 59.7693 45.3034L43.5043 35.7371C42.6397 35.2286 42.343 34.1015 42.8416 33.2196Z" fill="#071A36"/>
<path fill-rule="evenodd" clip-rule="evenodd" d="M49.775 29.2518C50.6159 28.766 51.5695 28.5103 52.5401 28.5103C53.5107 28.5103 54.4643 28.766 55.3052 29.2518C55.3065 29.2526 55.3078 29.2533 55.3091 29.2541L68.2311 36.6566C69.0721 37.1435 69.7707 37.8434 70.2567 38.6864C70.7427 39.5293 70.9991 40.4855 71.0001 41.4591V56.2681C70.9991 57.2417 70.7427 58.1979 70.2567 59.0408C69.7707 59.8837 69.0721 60.5837 68.2311 61.0705L68.2239 61.0746L55.3091 68.4731C55.308 68.4737 55.3069 68.4744 55.3058 68.475C54.4647 68.9611 53.5109 69.2169 52.5401 69.2169C51.5693 69.2169 50.6155 68.9611 49.7745 68.4751C49.7734 68.4744 49.7722 68.4738 49.7711 68.4731L36.8562 61.0746L36.8491 61.0705C36.008 60.5837 35.3095 59.8837 34.8234 59.0408C34.3374 58.1979 34.0811 57.2417 34.0801 56.2681V41.4591C34.0811 40.4855 34.3374 39.5293 34.8234 38.6864C35.3095 37.8434 36.008 37.1435 36.8491 36.6567L36.8562 36.6525L49.775 29.2518ZM52.5401 32.2115C52.216 32.2115 51.8977 32.2971 51.6171 32.4595L51.61 32.4636L38.6951 39.8621C38.6941 39.8626 38.6931 39.8632 38.6922 39.8638C38.4131 40.026 38.1813 40.2586 38.0199 40.5386C37.858 40.8194 37.7725 41.1378 37.7721 41.4621V56.2651C37.7725 56.5893 37.858 56.9078 38.0199 57.1885C38.1813 57.4685 38.4131 57.7012 38.6922 57.8634C38.6931 57.864 38.6941 57.8645 38.6951 57.8651L51.6171 65.2677C51.8977 65.4301 52.216 65.5156 52.5401 65.5156C52.8641 65.5156 53.1824 65.4301 53.4631 65.2677L53.4702 65.2636L66.3851 57.8651C66.3861 57.8645 66.387 57.864 66.388 57.8634C66.667 57.7012 66.8988 57.4685 67.0603 57.1885C67.2223 56.9076 67.3077 56.5888 67.3081 56.2643V41.4629C67.3077 41.1384 67.2223 40.8196 67.0603 40.5386C66.8988 40.2587 66.667 40.026 66.388 39.8638C66.387 39.8632 66.3861 39.8626 66.3851 39.8621L53.4631 32.4595C53.1824 32.2971 52.8641 32.2115 52.5401 32.2115Z" fill="#071A36"/>
<path fill-rule="evenodd" clip-rule="evenodd" d="M35.2695 38.8484C35.7673 38.0139 36.8683 37.7287 37.7288 38.2114L52.5407 46.521L67.3526 38.2114C68.213 37.7287 69.3141 38.0139 69.8118 38.8484C70.3096 39.6829 70.0155 40.7507 69.1551 41.2334L53.4419 50.0486C52.8844 50.3614 52.197 50.3614 51.6394 50.0486L35.9263 41.2334C35.0658 40.7507 34.7718 39.6829 35.2695 38.8484Z" fill="#071A36"/>
<path fill-rule="evenodd" clip-rule="evenodd" d="M52.5391 47.4434C53.3234 47.4434 53.9591 48.2503 53.9591 49.2458V67.4143C53.9591 68.4097 53.3234 69.2167 52.5391 69.2167C51.7549 69.2167 51.1191 68.4097 51.1191 67.4143V49.2458C51.1191 48.2503 51.7549 47.4434 52.5391 47.4434Z" fill="#071A36"/>
</svg>
