<svg width="40" height="40" viewBox="0 0 40 40" fill="none" xmlns="http://www.w3.org/2000/svg">
<rect width="40" height="40" rx="20" fill="#FBBF00"/>
<path fill-rule="evenodd" clip-rule="evenodd" d="M28.9238 24.4542H16.1212C15.3735 24.4542 14.7538 23.8551 14.7538 23.1126C14.7538 22.3701 15.3828 21.7668 16.1291 21.7668C16.2346 21.7668 28.999 20.2987 28.999 20.2987C29.3405 20.2608 29.599 19.9739 29.599 19.6279V12.9792C29.599 12.6079 29.2983 12.3084 28.9278 12.3084H13.4496L12.5727 10.0345C12.4712 9.77295 12.222 9.59998 11.9437 9.59998H8.67352C7.76629 9.6295 7.78344 10.9373 8.67747 10.95H11.4835L15.2047 20.5898C14.1762 20.9695 13.4074 21.9483 13.4074 23.1084C13.4074 24.5976 14.6404 25.8 16.1291 25.8H28.9278C29.8522 25.7367 29.7968 24.4922 28.9238 24.4542ZM20.1549 13.6542V16.3542L24.2018 16.35L24.1425 13.6542H20.1549ZM28.2566 16.35H25.5521L25.556 13.65H28.2566V16.35ZM18.8046 16.35L18.8007 13.6542H13.9692L15.0109 16.35H18.8046Z" fill="#4A525F"/>
<path d="M16.1001 29.175C16.1001 30.2934 15.1929 31.2 14.0747 31.2C12.9565 31.2 12.0492 30.2934 12.0492 29.175C12.0492 28.0566 12.9565 27.15 14.0747 27.15C15.1929 27.15 16.1001 28.0566 16.1001 29.175Z" fill="#4A525F"/>
<path d="M28.2527 29.175C28.2527 30.2934 27.3454 31.2 26.2272 31.2C25.109 31.2 24.2018 30.2934 24.2018 29.175C24.2018 28.0566 25.109 27.15 26.2272 27.15C27.3454 27.15 28.2527 28.0566 28.2527 29.175Z" fill="#4A525F"/>
</svg>
