<svg width="45" height="45" viewBox="0 0 45 45" fill="none" xmlns="http://www.w3.org/2000/svg">
<path fill-rule="evenodd" clip-rule="evenodd" d="M22.5 45C10.0736 45 0 34.9264 0 22.5C0 10.0736 10.0736 0 22.5 0C34.9264 0 45 10.0736 45 22.5C45 34.9264 34.9264 45 22.5 45ZM22.5 3C11.7304 3 3 11.7304 3 22.5C3 33.2696 11.7304 42 22.5 42C33.2696 42 42 33.2696 42 22.5C42 11.7304 33.2696 3 22.5 3Z" fill="#115192"/>
<path fill-rule="evenodd" clip-rule="evenodd" d="M22.5975 10.3125C20.1826 10.3125 18.1785 12.0715 17.8822 14.3157H16.9505C15.8126 14.3157 14.8639 14.6102 14.2012 15.2642C13.5374 15.9193 13.2375 16.8591 13.2375 17.9863V28.092C13.2375 29.2191 13.5374 30.1589 14.2012 30.814C14.8639 31.4681 15.8126 31.7625 16.9505 31.7625H28.4799C29.5194 31.7625 30.4097 31.46 31.0369 30.8039C31.661 30.151 31.9575 29.218 31.9575 28.092V17.9863C31.9575 16.8591 31.6577 15.9193 30.9939 15.2642C30.3312 14.6102 29.3825 14.3157 28.2446 14.3157H27.3131C27.0178 12.0721 25.0223 10.3125 22.5975 10.3125ZM24.4016 14.3157H20.7935C21.0221 13.5579 21.7074 13.0157 22.5975 13.0157C23.4877 13.0157 24.173 13.5579 24.4016 14.3157ZM16.1635 18.162C16.1635 17.7766 16.2651 17.5689 16.381 17.4547C16.4981 17.3393 16.7068 17.2435 17.078 17.2435H28.1171C28.4822 17.2435 28.6921 17.3387 28.8113 17.4556C28.9289 17.5708 29.0316 17.7792 29.0316 18.162V27.9162C29.0316 28.3048 28.9277 28.5317 28.8178 28.6552C28.7123 28.7738 28.56 28.8445 28.3524 28.8445H17.078C16.7068 28.8445 16.4987 28.7487 16.3819 28.6329C16.2659 28.518 16.1635 28.3078 16.1635 27.9162V18.162Z" fill="#115192"/>
</svg>
