<svg width="40" height="40" viewBox="0 0 40 40" fill="none" xmlns="http://www.w3.org/2000/svg">
<rect x="0.5" y="0.5" width="39" height="39" rx="19.5" stroke="#CCCCCC"/>
<path d="M28.0574 14.3422C27.5687 13.8533 26.9885 13.4655 26.3499 13.2009C25.7113 12.9362 25.0268 12.8 24.3355 12.8C23.6442 12.8 22.9597 12.9362 22.3211 13.2009C21.6825 13.4655 21.1022 13.8533 20.6136 14.3422L19.5994 15.3564L18.5852 14.3422C17.598 13.3551 16.2592 12.8006 14.8632 12.8006C13.4672 12.8006 12.1284 13.3551 11.1413 14.3422C10.1542 15.3294 9.59961 16.6682 9.59961 18.0642C9.59961 19.4602 10.1542 20.799 11.1413 21.7861L19.5994 30.2442L28.0574 21.7861C28.5463 21.2974 28.9342 20.7172 29.1988 20.0786C29.4634 19.4399 29.5996 18.7554 29.5996 18.0642C29.5996 17.3729 29.4634 16.6884 29.1988 16.0498C28.9342 15.4112 28.5463 14.8309 28.0574 14.3422Z" fill="#EA1601" stroke="#EA1601" stroke-linecap="round" stroke-linejoin="round"/>
</svg>
