<svg width="29" height="26" viewBox="0 0 29 26" fill="none" xmlns="http://www.w3.org/2000/svg">
<path d="M0 8.67129C0 14.5955 5.14377 20.4504 13.1388 25.445C13.583 25.7225 14.1275 26 14.5 26C14.8725 26 15.417 25.7225 15.8612 25.445C23.8706 20.4504 29 14.5955 29 8.67129C29 3.55176 25.3463 0 20.6611 0C17.9244 0 15.7895 1.20704 14.5 3.03842C13.2391 1.22092 11.0899 0 8.35326 0C3.65366 0 0 3.55176 0 8.67129ZM2.95158 8.65742C2.95158 5.16115 5.33004 2.78869 8.5252 2.78869C11.1042 2.78869 12.5514 4.30096 13.4541 5.619C13.8552 6.18783 14.1275 6.3682 14.5 6.3682C14.8869 6.3682 15.1304 6.17396 15.5459 5.619C16.5203 4.32871 17.9101 2.78869 20.4748 2.78869C23.6843 2.78869 26.0627 5.16115 26.0627 8.65742C26.0627 13.5411 20.8187 18.952 14.7722 22.8367C14.6433 22.92 14.5573 22.9755 14.5 22.9755C14.4427 22.9755 14.3567 22.92 14.2421 22.8367C8.19565 18.952 2.95158 13.5411 2.95158 8.65742Z" fill="#071A36"/>
</svg>
