<svg width="30" height="25" viewBox="0 0 30 25" fill="none" xmlns="http://www.w3.org/2000/svg">
<path d="M27.1195 2.2102C26.4191 1.5095 25.5875 0.953666 24.6723 0.574436C23.7571 0.195206 22.7761 1.52588e-05 21.7854 1.52588e-05C20.7947 1.52588e-05 19.8137 0.195206 18.8985 0.574436C17.9832 0.953666 17.1517 1.5095 16.4513 2.2102L14.9978 3.6637L13.5443 2.2102C12.1296 0.795511 10.2109 0.00074854 8.21021 0.000748555C6.20955 0.00074857 4.29082 0.795511 2.87614 2.2102C1.46145 3.62488 0.666687 5.54361 0.666687 7.54428C0.666687 9.54494 1.46145 11.4637 2.87614 12.8784L14.9978 25L27.1195 12.8784C27.8201 12.178 28.376 11.3464 28.7552 10.4312C29.1344 9.51596 29.3296 8.53497 29.3296 7.54428C29.3296 6.55358 29.1344 5.57259 28.7552 4.65735C28.376 3.74211 27.8201 2.91056 27.1195 2.2102Z" fill="#4A525F"/>
</svg>
