<svg width="40" height="40" viewBox="0 0 40 40" fill="none" xmlns="http://www.w3.org/2000/svg">
<rect x="0.5" y="0.5" width="39" height="39" rx="19.5" stroke="#CCCCCC"/>
<path d="M28.0574 14.3422C27.5687 13.8533 26.9885 13.4654 26.3499 13.2008C25.7113 12.9362 25.0268 12.8 24.3355 12.8C23.6442 12.8 22.9597 12.9362 22.3211 13.2008C21.6825 13.4654 21.1022 13.8533 20.6136 14.3422L19.5994 15.3564L18.5852 14.3422C17.598 13.3551 16.2592 12.8005 14.8632 12.8005C13.4672 12.8005 12.1284 13.3551 11.1413 14.3422C10.1542 15.3293 9.59961 16.6681 9.59961 18.0641C9.59961 19.4601 10.1542 20.7989 11.1413 21.786L19.5994 30.2441L28.0574 21.786C28.5463 21.2974 28.9342 20.7171 29.1988 20.0785C29.4634 19.4399 29.5996 18.7554 29.5996 18.0641C29.5996 17.3728 29.4634 16.6883 29.1988 16.0497C28.9342 15.4111 28.5463 14.8309 28.0574 14.3422Z" stroke="#CCCCCC" stroke-linecap="round" stroke-linejoin="round"/>
</svg>
