<svg width="224" height="79" viewBox="0 0 224 79" fill="none" xmlns="http://www.w3.org/2000/svg">
<g clip-path="url(#clip0)">
<path d="M96.0549 33.9858V37.722C94.8491 38.3617 93.501 38.6816 92.0175 38.6816C89.6329 38.6816 87.6481 37.9194 86.0494 36.3949C84.3016 34.7072 83.4277 32.6178 83.4277 30.127C83.4277 27.4728 84.3016 25.3359 86.0494 23.7093C87.5803 22.2666 89.5788 21.5452 92.0446 21.5452C93.4807 21.5452 94.8152 21.8786 96.0549 22.5524V26.2887C94.9914 25.0568 93.6839 24.4443 92.1123 24.4443C90.5136 24.4443 89.2129 25.0024 88.2104 26.1253C87.2078 27.2482 86.7065 28.5957 86.7065 30.1678C86.7065 31.8896 87.262 33.2508 88.3729 34.2648C89.4839 35.272 90.771 35.7756 92.241 35.7756C93.772 35.7824 95.0388 35.1835 96.0549 33.9858Z" fill="#566173"/>
<path d="M107.795 24.6691H104.123V38.3143H100.939V24.6691H97.2676V21.9197H107.788V24.6691H107.795Z" fill="#566173"/>
<path d="M120.768 38.314L119.325 34.8704H112.741L111.298 38.314H107.85L114.922 21.5723H117.32L124.196 38.314H120.768ZM113.743 32.2638H118.39L116.094 26.3634L113.743 32.2638Z" fill="#566173"/>
<path d="M127.664 21.9197H138.774V38.3143H135.59V24.6691H130.841V31.9443C130.841 32.5704 130.835 33.0332 130.814 33.3462C130.801 33.6593 130.74 34.1017 130.645 34.6733C130.55 35.245 130.367 35.7486 130.11 36.1842C129.846 36.6197 129.507 37.0144 129.08 37.3751C128.233 38.0965 127.15 38.4572 125.829 38.4572C125.368 38.4572 124.921 38.4096 124.48 38.3075V35.5581C124.806 35.6533 125.11 35.7078 125.388 35.7078C125.978 35.7078 126.465 35.5104 126.858 35.1157C127.116 34.8571 127.312 34.4964 127.434 34.0336C127.556 33.5776 127.624 33.1829 127.644 32.8562C127.658 32.5296 127.671 32.0123 127.671 31.3046V21.9197H127.664Z" fill="#566173"/>
<path d="M142.492 38.3143V21.9197H145.676V28.3373H148.223C149.917 28.3373 151.258 28.7865 152.234 29.6916C153.243 30.624 153.751 31.849 153.751 33.353C153.751 34.4692 153.46 35.4492 152.87 36.3067C151.956 37.6474 150.418 38.3211 148.244 38.3211H142.492V38.3143ZM145.676 31.0868V35.5581H147.532C149.49 35.5581 150.466 34.8162 150.466 33.3462C150.466 32.7269 150.249 32.1893 149.815 31.7469C149.382 31.3046 148.636 31.0868 147.573 31.0868H145.676Z" fill="#566173"/>
<path d="M159.28 21.9197V28.2625H166.183V21.9197H169.366V38.3143H166.183V31.0119H159.28V38.3143H156.096V21.9197H159.28Z" fill="#566173"/>
<path d="M184.188 38.314L182.745 34.8704H176.161L174.718 38.314H171.27L178.342 21.5723H180.74L187.616 38.314H184.188ZM177.17 32.2638H181.817L179.521 26.3634L177.17 32.2638Z" fill="#566173"/>
<path d="M199.7 21.9197V38.3143H196.516V31.9715H195.926L191.767 38.3143H187.953L192.797 31.6789C192.146 31.5836 191.55 31.3318 191.008 30.9439C189.782 30.0591 189.172 28.7389 189.172 26.983C189.172 25.3905 189.714 24.1247 190.785 23.1719C191.733 22.3348 193.129 21.9197 194.971 21.9197H199.7ZM196.523 24.5194H195.547C195.283 24.5194 195.032 24.5398 194.788 24.567C194.544 24.6011 194.219 24.6827 193.813 24.8257C193.406 24.9618 193.081 25.2204 192.837 25.5879C192.593 25.9554 192.472 26.4182 192.472 26.9762C192.472 28.63 193.515 29.4603 195.601 29.4603H196.529V24.5194H196.523Z" fill="#566173"/>
<path d="M90.9133 66.4485V64.189H90.473C88.5626 64.189 87.0316 63.7807 85.8732 62.9572C84.2406 61.7935 83.4277 60.0581 83.4277 57.7442C83.4277 55.4303 84.2406 53.6949 85.8732 52.5311C87.0316 51.7144 88.5626 51.2993 90.473 51.2993H90.9133V49.3801H94.0972V51.2993H94.5375C96.4479 51.2993 97.9788 51.7076 99.1372 52.5311C100.77 53.6949 101.583 55.4303 101.583 57.7442C101.583 60.0513 100.77 61.7935 99.1372 62.9572C97.9788 63.7739 96.4479 64.189 94.5375 64.189H94.0972V66.4485H90.9133ZM90.9133 61.4328V54.0624H90.4255C89.4433 54.0624 88.6439 54.2937 88.0275 54.7497C87.1468 55.4031 86.7065 56.4035 86.7065 57.751C86.7065 59.044 87.1468 60.0445 88.0275 60.7522C88.6168 61.215 89.4162 61.4396 90.4255 61.4396H90.9133V61.4328ZM94.0972 54.0624V61.4396H94.5849C95.6146 61.4396 96.4208 61.2082 97.0101 60.7522C97.8772 60.0785 98.304 59.0781 98.304 57.751C98.304 56.3899 97.8704 55.3894 97.0101 54.7497C96.3869 54.2937 95.5807 54.0624 94.5849 54.0624H94.0972Z" fill="#566173"/>
<path d="M113.574 50.0537V52.8032H107.701V56.4646H113.33V59.2208H107.701V63.6921H113.574V66.4415H104.523V50.0537H113.574Z" fill="#566173"/>
<path d="M118.22 50.0537H129.228V63.6989H130.942V70.137H128.009V66.4483H117.976V70.137H115.043V63.6989C115.598 63.7125 116.107 63.5151 116.56 63.0932C117.014 62.678 117.373 62.1404 117.637 61.4803C118.03 60.4799 118.227 59.0439 118.227 57.1791V50.0537H118.22ZM121.302 52.81V57.1859C121.302 59.2344 121.113 60.7589 120.74 61.7593C120.449 62.5147 120.022 63.1612 119.467 63.6989H126.051V52.81H121.302Z" fill="#566173"/>
<path d="M142.107 50.0537V52.8032H136.234V56.4646H141.863V59.2208H136.234V63.6921H142.107V66.4415H133.057V50.0537H142.107Z" fill="#566173"/>
<path d="M145.189 50.0537H149.938C150.948 50.0537 151.774 50.1422 152.424 50.3123C153.068 50.4825 153.678 50.8159 154.247 51.3059C155.358 52.2859 155.913 53.6062 155.913 55.2668C155.913 56.8048 155.466 58.0298 154.565 58.9282C153.603 59.8946 152.221 60.3778 150.433 60.3778H148.38V66.4483H145.196V50.0537H145.189ZM148.367 52.81V57.6283H149.66C150.589 57.6283 151.286 57.4582 151.74 57.1111C152.33 56.6551 152.621 56.0154 152.621 55.1919C152.621 54.3889 152.316 53.7696 151.713 53.3272C151.225 52.9801 150.473 52.81 149.464 52.81H148.367Z" fill="#566173"/>
<path d="M168.309 66.4483L166.866 63.0046H160.282L158.839 66.4483H155.391L162.463 49.7065H164.861L171.737 66.4483H168.309ZM161.284 60.4049H165.931L163.635 54.5045L161.284 60.4049Z" fill="#566173"/>
<path d="M173.641 66.4483V50.0537H176.825V63.6989H183.287V50.0537H186.471V63.6989H188.429V70.137H185.496V66.4483H173.641Z" fill="#566173"/>
<path d="M190.529 50.0538H193.713V61.0652L202.716 49.6794H204.918V66.4416H201.734V55.3893L192.731 66.7682H190.529V50.0538Z" fill="#566173"/>
<path d="M218.811 50.0537V66.4483H215.627V60.1055H215.038L210.878 66.4483H207.064L211.908 59.8129C211.258 59.7176 210.662 59.4658 210.12 59.0779C208.894 58.1932 208.284 56.8729 208.284 55.1171C208.284 53.5246 208.826 52.2587 209.896 51.3059C210.845 50.4688 212.24 50.0537 214.083 50.0537H218.811ZM215.634 52.6602H214.658C214.394 52.6602 214.144 52.6807 213.9 52.7079C213.656 52.7419 213.331 52.8236 212.924 52.9665C212.518 53.1026 212.193 53.3612 211.949 53.7287C211.705 54.0962 211.583 54.559 211.583 55.1171C211.583 56.7708 212.626 57.6011 214.713 57.6011H215.641V52.6602H215.634Z" fill="#566173"/>
<path d="M51.4065 62.9569C30.4949 73.6363 9.50902 74.3224 4.53537 64.4932C1.60314 58.6985 4.93623 50.5398 12.4264 42.6272C2.27124 51.9344 -2.50198 62.5616 1.29878 70.079C6.76238 80.8777 27.8373 81.1387 48.3703 70.6607C62.5935 63.4043 72.808 52.8964 75.9481 43.537C70.7592 50.4205 62.1555 57.4755 51.4065 62.9569Z" fill="#566173"/>
<path d="M22.612 64.0679V33.7002L15.2109 38.0033V63.9933C17.4751 64.2544 19.9619 64.2767 22.612 64.0679Z" fill="#566173"/>
<path d="M26.6637 64.1576C28.5715 63.8593 30.5461 63.4416 32.5653 62.9271V18.0168L20.7695 24.7586V30.5681L26.6711 27.0854V64.1576H26.6637Z" fill="#566173"/>
<path d="M45.2908 58.5047V17.0847L51.5339 20.8061V8.71714L36.4941 0.349609V61.2417C36.4941 61.2417 40.963 61.2417 45.2908 58.5047Z" fill="#566173"/>
<path d="M49.9285 56.3123C53.321 54.5821 56.4685 52.6804 59.3933 50.6892V29.4049L49.9062 24.5276V56.3272C49.9211 56.3197 49.9285 56.3197 49.9285 56.3123Z" fill="#566173"/>
</g>
<defs>
<clipPath id="clip0">
<rect width="224" height="78" fill="white" transform="translate(0 0.349609)"/>
</clipPath>
</defs>
</svg>
