<svg width="224" height="79" viewBox="0 0 224 79" fill="none" xmlns="http://www.w3.org/2000/svg">
<g clip-path="url(#clip0)">
<path d="M96.0549 34.2026V37.9388C94.8491 38.5785 93.501 38.8984 92.0175 38.8984C89.6329 38.8984 87.6481 38.1362 86.0494 36.6117C84.3016 34.9239 83.4277 32.8346 83.4277 30.3438C83.4277 27.6896 84.3016 25.5527 86.0494 23.9261C87.5803 22.4834 89.5788 21.762 92.0446 21.762C93.4807 21.762 94.8152 22.0954 96.0549 22.7692V26.5054C94.9914 25.2736 93.6839 24.6611 92.1123 24.6611C90.5136 24.6611 89.2129 25.2192 88.2104 26.3421C87.2078 27.465 86.7065 28.8125 86.7065 30.3846C86.7065 32.1064 87.262 33.4676 88.3729 34.4816C89.4839 35.4888 90.771 35.9924 92.241 35.9924C93.772 35.9992 95.0388 35.4003 96.0549 34.2026Z" fill="#566173"/>
<path d="M107.795 24.8859H104.123V38.5311H100.939V24.8859H97.2676V22.1365H107.788V24.8859H107.795Z" fill="#566173"/>
<path d="M120.768 38.5308L119.325 35.0872H112.741L111.298 38.5308H107.85L114.922 21.7891H117.32L124.196 38.5308H120.768ZM113.743 32.4806H118.39L116.094 26.5802L113.743 32.4806Z" fill="#566173"/>
<path d="M127.664 22.1365H138.774V38.5311H135.59V24.8859H130.841V32.1611C130.841 32.7872 130.835 33.25 130.814 33.563C130.801 33.8761 130.74 34.3185 130.645 34.8901C130.55 35.4618 130.367 35.9654 130.11 36.401C129.846 36.8365 129.507 37.2312 129.08 37.5919C128.233 38.3133 127.15 38.674 125.829 38.674C125.368 38.674 124.921 38.6264 124.48 38.5243V35.7748C124.806 35.8701 125.11 35.9246 125.388 35.9246C125.978 35.9246 126.465 35.7272 126.858 35.3325C127.116 35.0739 127.312 34.7132 127.434 34.2504C127.556 33.7944 127.624 33.3997 127.644 33.073C127.658 32.7464 127.671 32.2291 127.671 31.5214V22.1365H127.664Z" fill="#566173"/>
<path d="M142.492 38.5311V22.1365H145.676V28.5541H148.223C149.917 28.5541 151.258 29.0033 152.234 29.9084C153.243 30.8408 153.751 32.0658 153.751 33.5698C153.751 34.686 153.46 35.666 152.87 36.5235C151.956 37.8642 150.418 38.5379 148.244 38.5379H142.492V38.5311ZM145.676 31.3036V35.7749H147.532C149.49 35.7749 150.466 35.033 150.466 33.563C150.466 32.9437 150.249 32.4061 149.815 31.9637C149.382 31.5214 148.636 31.3036 147.573 31.3036H145.676Z" fill="#566173"/>
<path d="M159.28 22.1365V28.4793H166.183V22.1365H169.366V38.5311H166.183V31.2287H159.28V38.5311H156.096V22.1365H159.28Z" fill="#566173"/>
<path d="M184.188 38.5308L182.745 35.0872H176.161L174.718 38.5308H171.27L178.342 21.7891H180.74L187.616 38.5308H184.188ZM177.17 32.4806H181.817L179.521 26.5802L177.17 32.4806Z" fill="#566173"/>
<path d="M199.7 22.1365V38.5311H196.516V32.1883H195.926L191.767 38.5311H187.953L192.797 31.8957C192.146 31.8004 191.55 31.5486 191.008 31.1607C189.782 30.2759 189.172 28.9557 189.172 27.1998C189.172 25.6073 189.714 24.3415 190.785 23.3887C191.733 22.5516 193.129 22.1365 194.971 22.1365H199.7ZM196.523 24.7362H195.547C195.283 24.7362 195.032 24.7566 194.788 24.7838C194.544 24.8179 194.219 24.8995 193.813 25.0425C193.406 25.1786 193.081 25.4372 192.837 25.8047C192.593 26.1722 192.472 26.635 192.472 27.193C192.472 28.8468 193.515 29.6771 195.601 29.6771H196.529V24.7362H196.523Z" fill="#566173"/>
<path d="M90.9133 66.6653V64.4058H90.473C88.5626 64.4058 87.0316 63.9975 85.8732 63.174C84.2406 62.0103 83.4277 60.2749 83.4277 57.961C83.4277 55.6471 84.2406 53.9117 85.8732 52.7479C87.0316 51.9312 88.5626 51.5161 90.473 51.5161H90.9133V49.5969H94.0972V51.5161H94.5375C96.4479 51.5161 97.9788 51.9244 99.1372 52.7479C100.77 53.9117 101.583 55.6471 101.583 57.961C101.583 60.2681 100.77 62.0103 99.1372 63.174C97.9788 63.9907 96.4479 64.4058 94.5375 64.4058H94.0972V66.6653H90.9133ZM90.9133 61.6496V54.2792H90.4255C89.4433 54.2792 88.6439 54.5105 88.0275 54.9665C87.1468 55.6199 86.7065 56.6203 86.7065 57.9678C86.7065 59.2608 87.1468 60.2613 88.0275 60.969C88.6168 61.4318 89.4162 61.6564 90.4255 61.6564H90.9133V61.6496ZM94.0972 54.2792V61.6564H94.5849C95.6146 61.6564 96.4208 61.425 97.0101 60.969C97.8772 60.2953 98.304 59.2949 98.304 57.9678C98.304 56.6067 97.8704 55.6062 97.0101 54.9665C96.3869 54.5105 95.5807 54.2792 94.5849 54.2792H94.0972Z" fill="#566173"/>
<path d="M113.574 50.2705V53.02H107.701V56.6814H113.33V59.4376H107.701V63.9089H113.574V66.6583H104.523V50.2705H113.574Z" fill="#566173"/>
<path d="M118.22 50.2705H129.228V63.9157H130.942V70.3538H128.009V66.6651H117.976V70.3538H115.043V63.9157C115.598 63.9293 116.107 63.7319 116.56 63.31C117.014 62.8948 117.373 62.3572 117.637 61.6971C118.03 60.6966 118.227 59.2607 118.227 57.3959V50.2705H118.22ZM121.302 53.0268V57.4027C121.302 59.4512 121.113 60.9757 120.74 61.9761C120.449 62.7315 120.022 63.378 119.467 63.9157H126.051V53.0268H121.302Z" fill="#566173"/>
<path d="M142.107 50.2705V53.02H136.234V56.6814H141.863V59.4376H136.234V63.9089H142.107V66.6583H133.057V50.2705H142.107Z" fill="#566173"/>
<path d="M145.189 50.2705H149.938C150.948 50.2705 151.774 50.359 152.424 50.5291C153.068 50.6993 153.678 51.0327 154.247 51.5227C155.358 52.5027 155.913 53.823 155.913 55.4836C155.913 57.0216 155.466 58.2466 154.565 59.145C153.603 60.1114 152.221 60.5946 150.433 60.5946H148.38V66.6651H145.196V50.2705H145.189ZM148.367 53.0268V57.8451H149.66C150.589 57.8451 151.286 57.675 151.74 57.3279C152.33 56.8719 152.621 56.2322 152.621 55.4087C152.621 54.6057 152.316 53.9864 151.713 53.544C151.225 53.1969 150.473 53.0268 149.464 53.0268H148.367Z" fill="#566173"/>
<path d="M168.309 66.6651L166.866 63.2214H160.282L158.839 66.6651H155.391L162.463 49.9233H164.861L171.737 66.6651H168.309ZM161.284 60.6217H165.931L163.635 54.7213L161.284 60.6217Z" fill="#566173"/>
<path d="M173.641 66.6651V50.2705H176.825V63.9157H183.287V50.2705H186.471V63.9157H188.429V70.3538H185.496V66.6651H173.641Z" fill="#566173"/>
<path d="M190.529 50.2705H193.713V61.282L202.716 49.8962H204.918V66.6584H201.734V55.6061L192.731 66.985H190.529V50.2705Z" fill="#566173"/>
<path d="M218.811 50.2705V66.6651H215.627V60.3223H215.038L210.878 66.6651H207.064L211.908 60.0297C211.258 59.9344 210.662 59.6826 210.12 59.2947C208.894 58.41 208.284 57.0897 208.284 55.3339C208.284 53.7414 208.826 52.4755 209.896 51.5227C210.845 50.6856 212.24 50.2705 214.083 50.2705H218.811ZM215.634 52.877H214.658C214.394 52.877 214.144 52.8975 213.9 52.9247C213.656 52.9587 213.331 53.0404 212.924 53.1833C212.518 53.3194 212.193 53.578 211.949 53.9455C211.705 54.313 211.583 54.7758 211.583 55.3339C211.583 56.9876 212.626 57.8179 214.713 57.8179H215.641V52.877H215.634Z" fill="#566173"/>
<path d="M51.4065 63.1737C30.4949 73.8531 9.50902 74.5392 4.53537 64.71C1.60314 58.9153 4.93623 50.7566 12.4264 42.844C2.27124 52.1512 -2.50198 62.7784 1.29878 70.2958C6.76238 81.0945 27.8373 81.3555 48.3703 70.8775C62.5935 63.6211 72.808 53.1132 75.9481 43.7538C70.7592 50.6373 62.1555 57.6923 51.4065 63.1737Z" fill="#566173"/>
<path d="M22.612 64.2847V33.917L15.2109 38.2201V64.2101C17.4751 64.4712 19.9619 64.4935 22.612 64.2847Z" fill="#566173"/>
<path d="M26.6637 64.3744C28.5715 64.0761 30.5461 63.6584 32.5653 63.1439V18.2336L20.7695 24.9754V30.7849L26.6711 27.3022V64.3744H26.6637Z" fill="#566173"/>
<path d="M45.2908 58.7215V17.3015L51.5339 21.0229V8.93394L36.4941 0.566406V61.4585C36.4941 61.4585 40.963 61.4585 45.2908 58.7215Z" fill="#566173"/>
<path d="M49.9285 56.5291C53.321 54.7989 56.4685 52.8972 59.3933 50.906V29.6217L49.9062 24.7444V56.544C49.9211 56.5365 49.9285 56.5365 49.9285 56.5291Z" fill="#566173"/>
</g>
<defs>
<clipPath id="clip0">
<rect width="224" height="78" fill="white" transform="translate(0 0.566406)"/>
</clipPath>
</defs>
</svg>
