<svg width="32" height="32" viewBox="0 0 32 32" fill="none" xmlns="http://www.w3.org/2000/svg">
<path d="M9.33323 0.444336H22.6666C25.024 0.444336 27.285 1.38084 28.952 3.04783C30.6189 4.71482 31.5554 6.97575 31.5554 9.33323V22.6666C31.5554 25.024 30.6189 27.285 28.952 28.952C27.285 30.6189 25.024 31.5554 22.6666 31.5554H9.33323C6.97575 31.5554 4.71482 30.6189 3.04783 28.952C1.38084 27.285 0.444336 25.024 0.444336 22.6666V9.33323C0.444336 6.97575 1.38084 4.71482 3.04783 3.04783C4.71482 1.38084 6.97575 0.444336 9.33323 0.444336ZM15.9999 22.6666C17.768 22.6666 19.4637 21.9642 20.7139 20.7139C21.9642 19.4637 22.6666 17.768 22.6666 15.9999C22.6666 14.2318 21.9642 12.5361 20.7139 11.2858C19.4637 10.0356 17.768 9.33323 15.9999 9.33323C14.2318 9.33323 12.5361 10.0356 11.2858 11.2858C10.0356 12.5361 9.33323 14.2318 9.33323 15.9999C9.33323 17.768 10.0356 19.4637 11.2858 20.7139C12.5361 21.9642 14.2318 22.6666 15.9999 22.6666ZM23.6532 10.3199C23.9181 10.3288 24.182 10.2843 24.4293 10.1891C24.6767 10.0938 24.9023 9.94983 25.0928 9.7656C25.2833 9.58138 25.4348 9.36072 25.5382 9.11674C25.6417 8.87276 25.695 8.61046 25.695 8.34545C25.695 8.08044 25.6417 7.81814 25.5382 7.57416C25.4348 7.33018 25.2833 7.10951 25.0928 6.92529C24.9023 6.74107 24.6767 6.59706 24.4293 6.50183C24.182 6.40661 23.9181 6.36212 23.6532 6.371C23.141 6.38819 22.6556 6.60374 22.2993 6.97214C21.9431 7.34054 21.7439 7.83297 21.7439 8.34545C21.7439 8.85793 21.9431 9.35035 22.2993 9.71875C22.6556 10.0872 23.141 10.3027 23.6532 10.3199Z" fill="white"/>
</svg>
