<svg width="30" height="29" viewBox="0 0 30 29" fill="none" xmlns="http://www.w3.org/2000/svg">
<path d="M8.93264 0.12085H21.066C23.2113 0.12085 25.2687 0.97307 26.7857 2.49003C28.3026 4.00699 29.1549 6.06443 29.1549 8.20974V20.3431C29.1549 22.4884 28.3026 24.5458 26.7857 26.0628C25.2687 27.5797 23.2113 28.432 21.066 28.432H8.93264C6.78733 28.432 4.72989 27.5797 3.21293 26.0628C1.69597 24.5458 0.84375 22.4884 0.84375 20.3431V8.20974C0.84375 6.06443 1.69597 4.00699 3.21293 2.49003C4.72989 0.97307 6.78733 0.12085 8.93264 0.12085ZM14.9993 20.3431C16.6083 20.3431 18.1514 19.7039 19.2891 18.5662C20.4268 17.4285 21.066 15.8854 21.066 14.2764C21.066 12.6674 20.4268 11.1243 19.2891 9.98663C18.1514 8.8489 16.6083 8.20974 14.9993 8.20974C13.3903 8.20974 11.8472 8.8489 10.7095 9.98663C9.57181 11.1243 8.93264 12.6674 8.93264 14.2764C8.93264 15.8854 9.57181 17.4285 10.7095 18.5662C11.8472 19.7039 13.3903 20.3431 14.9993 20.3431ZM21.9638 9.10761C22.2049 9.11569 22.4451 9.0752 22.6701 8.98855C22.8952 8.9019 23.1005 8.77085 23.2738 8.60321C23.4472 8.43556 23.5851 8.23476 23.6792 8.01274C23.7734 7.79071 23.8219 7.55202 23.8219 7.31086C23.8219 7.0697 23.7734 6.83101 23.6792 6.60899C23.5851 6.38697 23.4472 6.18616 23.2738 6.01852C23.1005 5.85088 22.8952 5.71983 22.6701 5.63317C22.4451 5.54652 22.2049 5.50603 21.9638 5.51412C21.4977 5.52976 21.056 5.72591 20.7318 6.06115C20.4076 6.3964 20.2264 6.84451 20.2264 7.31086C20.2264 7.77722 20.4076 8.22532 20.7318 8.56057C21.056 8.89582 21.4977 9.09197 21.9638 9.10761Z" fill="#566173"/>
</svg>
