<svg width="23" height="23" viewBox="0 0 23 23" fill="none" xmlns="http://www.w3.org/2000/svg">
<path d="M9.60952 18.1878C11.4267 18.1878 13.1295 17.6392 14.5467 16.7021L19.5524 21.7192C19.8838 22.0392 20.3067 22.1992 20.7638 22.1992C21.7124 22.1992 22.4095 21.4564 22.4095 20.5192C22.4095 20.0849 22.2609 19.6621 21.9409 19.3421L16.9695 14.3478C17.9981 12.8849 18.6038 11.1135 18.6038 9.1935C18.6038 4.24493 14.5581 0.199219 9.60952 0.199219C4.67238 0.199219 0.615234 4.24493 0.615234 9.1935C0.615234 14.1421 4.66095 18.1878 9.60952 18.1878ZM9.60952 15.7878C5.98666 15.7878 3.01523 12.8164 3.01523 9.1935C3.01523 5.57065 5.98666 2.59922 9.60952 2.59922C13.2324 2.59922 16.2038 5.57065 16.2038 9.1935C16.2038 12.8164 13.2324 15.7878 9.60952 15.7878Z" fill="#C6C7CA"/>
</svg>
