<svg width="50" height="50" viewBox="0 0 50 50" fill="none" xmlns="http://www.w3.org/2000/svg">
<path d="M0 0H45C47.7614 0 50 2.23858 50 5V50H5C2.23858 50 0 47.7614 0 45V0Z" fill="white"/>
<path d="M26.1804 34C26.4162 34 26.7609 33.8186 27.0422 33.6371C32.1131 30.3714 35.3607 26.5432 35.3607 22.6697C35.3607 19.3223 33.0475 17 30.1537 17C28.3485 17 26.9968 17.9979 26.1804 19.4856C25.3821 17.9979 24.0213 17 22.2161 17C19.3132 17 17 19.3223 17 22.6697C17 26.5432 20.2567 30.3714 25.3186 33.6371C25.5998 33.8186 25.9445 34 26.1804 34Z" fill="#071A36"/>
</svg>
