<svg width="18" height="18" viewBox="0 0 18 18" fill="none" xmlns="http://www.w3.org/2000/svg">
<path d="M0.0576172 6.32591C0.0576172 10.1197 3.21804 13.8691 8.13033 17.0676C8.40324 17.2453 8.73777 17.4229 8.96666 17.4229C9.19555 17.4229 9.53008 17.2453 9.80298 17.0676C14.7241 13.8691 17.8757 10.1197 17.8757 6.32591C17.8757 3.04744 15.6308 0.772949 12.7521 0.772949C11.0707 0.772949 9.75896 1.54592 8.96666 2.71871C8.19196 1.55481 6.87145 0.772949 5.19 0.772949C2.30248 0.772949 0.0576172 3.04744 0.0576172 6.32591ZM1.87112 6.31703C1.87112 4.07807 3.33248 2.55878 5.29564 2.55878C6.88025 2.55878 7.7694 3.52722 8.32401 4.37127C8.57051 4.73554 8.73777 4.85104 8.96666 4.85104C9.20435 4.85104 9.35401 4.72666 9.60931 4.37127C10.2079 3.54499 11.0619 2.55878 12.6377 2.55878C14.6096 2.55878 16.071 4.07807 16.071 6.31703C16.071 9.44445 12.849 12.9095 9.13392 15.3972C9.05469 15.4505 9.00187 15.4861 8.96666 15.4861C8.93144 15.4861 8.87862 15.4505 8.8082 15.3972C5.09316 12.9095 1.87112 9.44445 1.87112 6.31703Z" fill="white"/>
</svg>
