<svg width="50" height="50" viewBox="0 0 50 50" fill="none" xmlns="http://www.w3.org/2000/svg">
<path d="M0 0H45C47.7614 0 50 2.23858 50 5V50H5C2.23858 50 0 47.7614 0 45V0Z" fill="#C6C7CA"/>
<path d="M17.0586 22.3259C17.0586 26.1197 20.219 29.8691 25.1313 33.0676C25.4042 33.2453 25.7387 33.4229 25.9676 33.4229C26.1965 33.4229 26.5311 33.2453 26.804 33.0676C31.7251 29.8691 34.8767 26.1197 34.8767 22.3259C34.8767 19.0474 32.6318 16.7729 29.7531 16.7729C28.0716 16.7729 26.7599 17.5459 25.9676 18.7187C25.1929 17.5548 23.8724 16.7729 22.191 16.7729C19.3035 16.7729 17.0586 19.0474 17.0586 22.3259ZM18.8721 22.317C18.8721 20.0781 20.3335 18.5588 22.2966 18.5588C23.8812 18.5588 24.7704 19.5272 25.325 20.3713C25.5715 20.7355 25.7387 20.851 25.9676 20.851C26.2053 20.851 26.355 20.7267 26.6103 20.3713C27.2089 19.545 28.0628 18.5588 29.6387 18.5588C31.6106 18.5588 33.072 20.0781 33.072 22.317C33.072 25.4445 29.8499 28.9095 26.1349 31.3972C26.0557 31.4505 26.0028 31.4861 25.9676 31.4861C25.9324 31.4861 25.8796 31.4505 25.8092 31.3972C22.0941 28.9095 18.8721 25.4445 18.8721 22.317Z" fill="white"/>
</svg>
