<svg width="34" height="29" viewBox="0 0 34 29" fill="none" xmlns="http://www.w3.org/2000/svg">
<path d="M1.38477 14.1948L8.83869 16.9835L11.7244 26.2857C11.7674 26.4229 11.8433 26.5474 11.9456 26.6484C12.0479 26.7494 12.1733 26.8238 12.311 26.8652C12.4487 26.9065 12.5944 26.9134 12.7354 26.8853C12.8764 26.8573 13.0083 26.7951 13.1197 26.7043L17.2754 23.311C17.4868 23.1374 17.75 23.0391 18.0234 23.0314C18.2969 23.0237 18.5651 23.1071 18.786 23.2685L26.2824 28.7205C26.4009 28.8072 26.5392 28.8627 26.6848 28.8819C26.8304 28.9011 26.9784 28.8835 27.1153 28.8305C27.2523 28.7775 27.3737 28.691 27.4684 28.5788C27.5632 28.4667 27.6282 28.3325 27.6575 28.1886L33.1498 1.71772C33.1808 1.56319 33.1699 1.40319 33.1182 1.2543C33.0665 1.10541 32.9759 0.973057 32.8559 0.870949C32.7358 0.768841 32.5907 0.700697 32.4354 0.67358C32.2801 0.646463 32.1205 0.661358 31.9729 0.716724L1.37466 12.5467C1.20797 12.6113 1.06485 12.725 0.964282 12.8728C0.863712 13.0206 0.810443 13.1955 0.81154 13.3743C0.812637 13.553 0.868047 13.7272 0.970423 13.8738C1.0728 14.0203 1.2173 14.1323 1.38477 14.1948ZM11.2593 15.5012L25.8314 6.50432C26.0923 6.34457 26.3612 6.69846 26.1348 6.90877L14.1126 18.1119C13.6898 18.5047 13.4167 19.0323 13.3402 19.6043L12.9296 22.6477C12.875 23.0522 12.3068 23.0926 12.1936 22.7023L10.6162 17.1533C10.5294 16.8455 10.5451 16.5177 10.6612 16.2196C10.7772 15.9215 10.9872 15.6693 11.2593 15.5012Z" fill="#566173"/>
</svg>
