<svg width="36" height="32" viewBox="0 0 36 32" fill="none" xmlns="http://www.w3.org/2000/svg">
<path d="M0.962221 15.207L9.15333 18.2714L12.3244 28.4937C12.3717 28.6444 12.4552 28.7812 12.5675 28.8922C12.6799 29.0032 12.8178 29.085 12.9691 29.1304C13.1204 29.1758 13.2805 29.1834 13.4354 29.1526C13.5903 29.1218 13.7354 29.0535 13.8578 28.9537L18.4244 25.2248C18.6568 25.034 18.946 24.9259 19.2465 24.9175C19.547 24.909 19.8417 25.0007 20.0844 25.1781L28.3222 31.1692C28.4524 31.2645 28.6045 31.3255 28.7644 31.3466C28.9244 31.3678 29.0871 31.3483 29.2376 31.2901C29.388 31.2319 29.5215 31.1368 29.6256 31.0136C29.7297 30.8903 29.8011 30.7429 29.8333 30.5848L35.8689 1.49588C35.9029 1.32606 35.8909 1.15024 35.8341 0.986623C35.7773 0.82301 35.6778 0.677563 35.5459 0.565356C35.4139 0.453149 35.2544 0.378266 35.0838 0.348467C34.9132 0.318668 34.7377 0.335037 34.5756 0.395879L0.95111 13.3959C0.767933 13.4669 0.610659 13.5918 0.500142 13.7542C0.389625 13.9167 0.331088 14.1088 0.332294 14.3053C0.333499 14.5017 0.394389 14.6931 0.50689 14.8542C0.619391 15.0152 0.778187 15.1383 0.962221 15.207ZM11.8133 16.6425L27.8267 6.75588C28.1133 6.58032 28.4089 6.96921 28.16 7.20032L14.9489 19.5114C14.4842 19.9431 14.1841 20.5228 14.1 21.1514L13.6489 24.4959C13.5889 24.9403 12.9644 24.9848 12.84 24.5559L11.1067 18.4581C11.0112 18.1198 11.0286 17.7596 11.1561 17.432C11.2836 17.1044 11.5143 16.8273 11.8133 16.6425Z" fill="white"/>
</svg>
