<svg width="59" height="58" viewBox="0 0 59 58" fill="none" xmlns="http://www.w3.org/2000/svg">
<path d="M4.25268 53.8254C8.63123 58.0659 14.5595 58.0418 18.7659 53.8736C22.554 50.1391 23.6364 45.5613 29.8106 37.5864L39.6993 47.2238L40.019 49.344C40.1666 50.2837 40.7816 51.127 41.5688 51.657L49.3665 56.789C50.2521 57.3672 51.1376 57.3672 51.7772 56.7408L56.4755 52.1389C57.0905 51.5125 57.0413 50.621 56.4755 49.7777L51.2852 42.1642C50.7194 41.345 49.8585 40.7908 48.8991 40.6463L46.7591 40.333L36.3047 30.0933C37.2148 29.1536 38.1742 28.1658 39.2319 27.1298C44.5206 29.4186 50.8178 28.5513 54.9996 24.4313C59.5995 19.9499 60.3129 12.8182 56.7215 7.18028L53.9173 9.92695V9.95104L49.9569 13.7819C49.3419 14.4084 48.5794 14.4324 47.9398 13.7819L45.1848 11.0834C44.496 10.4088 44.4714 9.66192 45.0864 9.05958L49.0221 5.20461L51.851 2.45794C46.1195 -1.05973 38.8629 -0.385105 34.263 4.12039C30.647 7.68624 29.4662 12.7459 30.7208 17.396L17.2407 4.14449C13.6001 0.578638 9.68897 0.554545 6.12217 4.04811L2.65377 7.4694C-0.913026 10.9389 -0.888428 14.7698 2.75217 18.3356L16.5028 31.8039C10.8943 35.3698 7.30291 36.5985 4.20348 39.5861C-0.0520752 43.7302 -0.0766738 49.5127 4.25268 53.8254ZM42.2083 13.1796L45.7751 16.6491C47.62 18.4561 49.9815 18.5043 51.728 16.7936L55.0488 13.5169C55.467 16.5527 54.5076 19.5885 52.2691 21.781C48.2596 25.7082 41.618 25.5155 37.3624 21.3955C33.1314 17.2514 32.9592 10.6979 36.9934 6.79478C39.2073 4.62636 42.3067 3.68671 45.3815 4.07221L42.0607 7.30075C40.2404 9.08367 40.3142 11.3726 42.2083 13.1796ZM5.38422 15.3721C3.66231 13.6855 3.68691 11.999 5.35962 10.3365L9.04941 6.67431C10.7467 5.01186 12.4932 5.03595 14.2151 6.7225L29.3925 21.5882C25.7027 25.0336 22.5294 27.5875 19.7744 29.5632L5.38422 15.3721ZM20.3894 19.9258C20.8075 20.3836 21.5701 20.3354 21.9637 19.9499C22.431 19.4921 22.431 18.7934 21.9883 18.3597L13.0344 9.61373C12.5916 9.18005 11.9028 9.20414 11.4847 9.61373C11.0419 10.0474 11.0419 10.722 11.4847 11.1557L20.3894 19.9258ZM17.2653 22.9616C17.7081 23.4193 18.4215 23.3953 18.8642 22.9616C19.2824 22.552 19.307 21.8774 18.8642 21.4437L9.91036 12.6736C9.51678 12.264 8.77882 12.264 8.33605 12.6736C7.89327 13.1073 7.86867 13.8301 8.31145 14.2397L17.2653 22.9616ZM34.632 24.0458C35.0747 24.4554 35.5175 24.865 35.9849 25.2023C19.8236 41.4895 21.4963 45.5613 15.8878 51.0788C13.3296 53.6086 9.83656 53.705 7.10612 51.0547C4.37567 48.3321 4.49867 44.9349 7.05692 42.4292C12.69 36.9358 16.8226 38.5742 33.4512 22.7447C33.8202 23.2025 34.2138 23.6362 34.632 24.0458ZM44.1762 48.2598L43.6596 45.5613L32.3443 34.4783C32.7379 33.9964 33.156 33.5387 33.5988 33.0327L45.0372 44.2362L47.7922 44.694L52.3183 50.5728L50.1537 52.693L44.1762 48.2598ZM11.4355 49.7054C13.0344 49.7054 14.3381 48.4285 14.3381 46.8383C14.3381 45.2722 13.0344 43.9953 11.4355 43.9953C9.83656 43.9953 8.50824 45.2722 8.50824 46.8383C8.50824 48.4285 9.83656 49.7054 11.4355 49.7054Z" fill="#071A36"/>
</svg>
