<svg width="160" height="50" viewBox="0 0 160 50" fill="none" xmlns="http://www.w3.org/2000/svg">
<path d="M44.8103 21.3912C45.3627 21.7401 45.9878 21.9145 46.6783 21.9145C47.3688 21.9145 47.9939 21.7401 48.5463 21.3912C48.6917 21.2967 48.8298 21.2022 48.9533 21.0932C48.9824 21.2894 49.0696 21.4639 49.215 21.602C49.5712 21.9581 50.2035 21.9581 50.5597 21.602C50.7341 21.4275 50.8286 21.1949 50.8286 20.926V17.8151C50.7995 17.1464 50.6324 16.5358 50.3125 15.9907C49.9709 15.4019 49.4985 14.9295 48.917 14.5806C47.7468 13.8901 46.1259 13.8974 44.9557 14.5806C44.3669 14.9222 43.8945 15.3947 43.5528 15.9907C43.2112 16.5867 43.0368 17.2554 43.0368 17.9968C43.0368 18.7309 43.1967 19.3996 43.5092 19.9884C43.829 20.5771 44.2652 21.0496 44.8103 21.3912ZM47.9939 19.9011C47.3906 20.2718 46.5184 20.2791 45.8933 19.9011C45.5735 19.7049 45.3336 19.4505 45.1519 19.1234C44.9702 18.7963 44.8757 18.4184 44.8757 17.9968C44.8757 17.5752 44.9702 17.19 45.1519 16.8629C45.3336 16.5358 45.5808 16.2742 45.8933 16.0852C46.2058 15.8962 46.5547 15.8017 46.94 15.8017C47.3325 15.8017 47.6886 15.8962 47.9939 16.0852C48.2992 16.2742 48.5463 16.5358 48.728 16.8629C48.9097 17.1973 48.997 17.5752 48.997 18.0041C48.997 18.4184 48.9025 18.7963 48.728 19.1307C48.5463 19.4578 48.3064 19.7122 47.9939 19.9011Z" fill="white"/>
<path d="M54.71 16.0707C55.0153 15.8889 55.3569 15.8017 55.7494 15.8017C56.3163 15.8017 56.7742 15.998 57.1595 16.405C57.3194 16.5649 57.5011 16.6667 57.7046 16.7103C57.9299 16.7539 58.1407 16.7103 58.3297 16.5794C58.5405 16.4268 58.6713 16.2378 58.7222 16.027C58.7585 15.8599 58.7585 15.6127 58.5332 15.3511C58.1698 14.9295 57.7482 14.6097 57.283 14.3916C56.8179 14.1808 56.3018 14.0718 55.7494 14.0718C55.0153 14.0718 54.3466 14.239 53.7724 14.5733C53.1981 14.9077 52.7402 15.3801 52.4059 15.9689C52.0788 16.5576 51.9116 17.2409 51.9116 17.9968C51.9116 18.7309 52.0788 19.4069 52.4131 19.9956C52.7475 20.5844 53.2127 21.0568 53.8014 21.3985C54.3902 21.7401 55.0661 21.9145 55.8148 21.9145C56.8251 21.9145 57.6901 21.5947 58.3733 20.9551C58.555 20.7734 58.635 20.5553 58.6059 20.3155C58.5768 20.0901 58.4605 19.8939 58.2643 19.7267C58.0971 19.5813 57.9009 19.5159 57.6683 19.5377C57.4647 19.5523 57.2685 19.6395 57.0868 19.7921C56.9196 19.9302 56.7379 20.032 56.5417 20.0901C56.3381 20.1555 56.091 20.1919 55.8148 20.1919C55.4005 20.1919 55.0371 20.0974 54.7318 19.9084C54.4265 19.7194 54.1794 19.4578 54.0049 19.138C53.8305 18.8109 53.7433 18.4329 53.7433 18.0041C53.7433 17.5534 53.8305 17.1537 54.0049 16.8266C54.1721 16.4995 54.412 16.2451 54.71 16.0707Z" fill="white"/>
<path d="M62.6108 16.0707C62.9089 15.8889 63.2577 15.8017 63.6502 15.8017C64.2172 15.8017 64.6751 15.998 65.0603 16.405C65.2202 16.5649 65.4019 16.6667 65.6055 16.7103C65.8308 16.7539 66.0416 16.7103 66.2306 16.5794C66.4413 16.4268 66.5722 16.2378 66.6231 16.027C66.6594 15.8599 66.6594 15.6127 66.4341 15.3511C66.0706 14.9295 65.6491 14.6097 65.1839 14.3916C64.7187 14.1808 64.2026 14.0718 63.6502 14.0718C62.9161 14.0718 62.2474 14.239 61.6732 14.5733C61.099 14.9077 60.6411 15.3801 60.3067 15.9689C59.9796 16.5576 59.8125 17.2409 59.8125 17.9968C59.8125 18.7309 59.9797 19.4069 60.314 19.9956C60.6484 20.5844 61.1135 21.0568 61.7023 21.3985C62.291 21.7401 62.967 21.9145 63.7157 21.9145C64.726 21.9145 65.5909 21.5947 66.2742 20.9551C66.4559 20.7734 66.5358 20.5553 66.5068 20.3155C66.4777 20.0901 66.3614 19.8939 66.1651 19.7267C65.998 19.5813 65.7872 19.5232 65.5691 19.5377C65.3656 19.5523 65.1694 19.6395 64.9876 19.7921C64.8205 19.9302 64.6388 20.032 64.4425 20.0901C64.239 20.1555 63.9919 20.1919 63.7157 20.1919C63.3014 20.1919 62.9379 20.0974 62.6327 19.9084C62.3274 19.7194 62.0802 19.4578 61.9058 19.138C61.7314 18.8109 61.6441 18.4329 61.6441 18.0041C61.6441 17.5534 61.7314 17.1537 61.9058 16.8266C62.0802 16.4995 62.3128 16.2451 62.6108 16.0707Z" fill="white"/>
<path d="M69.6031 21.413C70.1846 21.7473 70.8679 21.9145 71.6165 21.9145C72.3652 21.9145 73.0484 21.7473 73.6299 21.413C74.2114 21.0786 74.6766 20.6135 75.0109 20.0247C75.338 19.436 75.5052 18.76 75.5052 18.0041C75.5052 17.2409 75.338 16.5576 75.0036 15.9689C74.6693 15.3801 74.2041 14.915 73.6226 14.5806C73.0411 14.2463 72.3652 14.0791 71.6238 14.0791C70.8679 14.0791 70.1919 14.2463 69.6104 14.5806C69.0289 14.915 68.5638 15.3801 68.2294 15.9689C67.8951 16.5576 67.7279 17.2409 67.7279 18.0041C67.7279 18.76 67.8951 19.436 68.2294 20.0247C68.5565 20.6062 69.0217 21.0786 69.6031 21.413ZM69.5523 17.9968C69.5523 17.5607 69.6468 17.1755 69.8212 16.8484C69.9956 16.5213 70.2428 16.2596 70.548 16.0779C70.8533 15.8962 71.2168 15.8017 71.6165 15.8017C72.0163 15.8017 72.3797 15.8962 72.685 16.0779C72.9903 16.2596 73.2301 16.5213 73.4046 16.8484C73.579 17.1827 73.6662 17.568 73.6662 18.0041C73.6662 18.4402 73.579 18.8254 73.4046 19.1525C73.2301 19.4723 72.9903 19.734 72.685 19.9157C72.0672 20.2864 71.1586 20.2791 70.548 19.9157C70.2428 19.734 69.9956 19.4723 69.8212 19.1525C69.6468 18.8181 69.5523 18.4329 69.5523 17.9968Z" fill="white"/>
<path d="M78.5943 24.662C78.7687 24.4803 78.8559 24.255 78.8559 23.9933V21.1005C79.074 21.2822 79.3139 21.4348 79.5755 21.5656C80.048 21.7982 80.564 21.9145 81.1237 21.9145C81.8142 21.9145 82.4393 21.7401 82.9917 21.3912C83.5368 21.0496 83.973 20.5771 84.2928 19.9884C84.6053 19.4069 84.7652 18.7309 84.7652 17.9968C84.7652 17.2627 84.5908 16.5867 84.2492 15.9907C83.9075 15.4019 83.4351 14.9295 82.8536 14.5806C82.2721 14.239 81.5962 14.0645 80.862 14.0645C80.1352 14.0645 79.4665 14.239 78.885 14.5806C78.3035 14.9222 77.8384 15.3947 77.4967 15.9907C77.1624 16.5794 76.9807 17.2554 76.9734 17.9895V23.986C76.9734 24.2477 77.0679 24.4803 77.2423 24.662C77.424 24.8437 77.6494 24.9309 77.9183 24.9309C78.1872 24.9382 78.4126 24.8437 78.5943 24.662ZM78.7978 17.9968C78.7978 17.5752 78.8923 17.19 79.0667 16.8556C79.2484 16.5213 79.4883 16.2669 79.8008 16.0779C80.1134 15.8889 80.4623 15.7944 80.8475 15.7944C81.24 15.7944 81.5962 15.8889 81.9014 16.0779C82.2067 16.2669 82.4611 16.5286 82.6428 16.8629C82.8245 17.19 82.919 17.5752 82.919 17.9968C82.919 18.4111 82.8245 18.7891 82.6428 19.1234C82.4611 19.4578 82.214 19.7122 81.9014 19.9011C81.2982 20.2718 80.4259 20.2791 79.8008 19.9011C79.4883 19.7122 79.2412 19.4578 79.0667 19.1234C78.8923 18.7963 78.7978 18.4184 78.7978 17.9968Z" fill="white"/>
<path d="M95.2537 21.602C95.4281 21.7764 95.6607 21.8709 95.9296 21.8709C96.2058 21.8709 96.4384 21.7764 96.6129 21.5947C96.7873 21.413 96.8745 21.1877 96.8745 20.926V17.1682C96.8745 16.5213 96.7583 15.9616 96.5257 15.5037C96.2858 15.0313 95.9515 14.6678 95.5153 14.4207C95.0865 14.1808 94.5995 14.0573 94.0544 14.0573C93.4438 14.0573 92.8841 14.1954 92.4044 14.457C92.1646 14.5879 91.9538 14.7478 91.7648 14.9295C91.5831 14.726 91.3723 14.5515 91.1397 14.4207C90.2747 13.9264 89.0246 13.9337 88.1524 14.4643C88.0942 14.5007 88.0361 14.537 87.9779 14.5806C87.9416 14.5152 87.8907 14.457 87.8398 14.3989C87.4909 14.0573 86.8513 14.0427 86.4879 14.3989C86.3062 14.5733 86.2117 14.8059 86.2117 15.0821V20.9333C86.2117 21.1949 86.3062 21.4275 86.4806 21.6092C86.844 21.9727 87.4909 21.9654 87.8398 21.602C88.0143 21.4203 88.1015 21.1949 88.1015 20.9333V17.2263C88.1015 16.8048 88.225 16.4704 88.4722 16.2015C88.7193 15.9398 89.0246 15.8163 89.4025 15.8163C89.7732 15.8163 90.0567 15.9253 90.2747 16.1361C90.4928 16.3469 90.6018 16.6957 90.6018 17.1682V20.926C90.6018 21.1949 90.6963 21.4203 90.8708 21.602C91.2342 21.9654 91.8811 21.9509 92.23 21.602C92.4044 21.4203 92.4916 21.1949 92.4916 20.9333V17.2263C92.4916 16.8048 92.6152 16.4704 92.8623 16.2015C93.1022 15.9398 93.4075 15.8163 93.7854 15.8163C94.1561 15.8163 94.4396 15.9253 94.6577 16.1361C94.8757 16.3469 94.9847 16.6957 94.9847 17.1682V20.926C94.9775 21.2022 95.072 21.4275 95.2537 21.602Z" fill="white"/>
<path d="M100.015 14.3771C99.6584 14.0209 99.026 14.0209 98.6699 14.3771C98.4882 14.5588 98.4009 14.7841 98.4009 15.0531V18.2875C98.4009 19.058 98.5536 19.7194 98.8516 20.2573C99.1496 20.8024 99.5712 21.224 100.094 21.5002C100.611 21.7764 101.199 21.9218 101.846 21.9218C102.479 21.9218 103.053 21.7837 103.547 21.5075C103.663 21.4421 103.772 21.3767 103.881 21.2967C103.925 21.4057 103.99 21.5002 104.078 21.5874C104.441 21.9509 105.095 21.9363 105.437 21.5874C105.611 21.4057 105.699 21.1804 105.699 20.9187V15.0531C105.699 14.7769 105.611 14.5515 105.437 14.3698C105.095 14.0282 104.456 14.0137 104.085 14.3698C103.903 14.5443 103.809 14.7769 103.809 15.0531V18.76C103.809 19.0217 103.736 19.247 103.591 19.4578C103.438 19.6758 103.242 19.843 102.987 19.9738C102.464 20.2355 101.694 20.2282 101.156 19.9666C100.887 19.8357 100.683 19.6395 100.523 19.3633C100.363 19.0871 100.283 18.7236 100.283 18.2803V15.0458C100.283 14.7914 100.196 14.5588 100.015 14.3771Z" fill="white"/>
<path d="M114.646 21.5947C114.82 21.7692 115.053 21.8636 115.322 21.8636C115.598 21.8636 115.831 21.7692 116.005 21.5874C116.18 21.4057 116.267 21.1804 116.267 20.9187V15.0676C116.267 14.7914 116.18 14.5661 116.005 14.3916C115.831 14.2172 115.598 14.13 115.322 14.13C115.068 14.13 114.697 14.2245 114.384 14.6533L111.884 18.2585L109.384 14.646C109.078 14.2172 108.708 14.1227 108.453 14.1227C108.192 14.1227 107.966 14.2099 107.785 14.3844C107.603 14.5588 107.508 14.7914 107.508 15.0676V20.9187C107.508 21.1877 107.603 21.413 107.777 21.5947C108.141 21.9581 108.788 21.9509 109.136 21.5874C109.311 21.4057 109.398 21.1804 109.398 20.9187V17.597L110.939 19.8139C111.201 20.1846 111.513 20.3809 111.855 20.3809C112.189 20.3663 112.516 20.1919 112.793 19.8139L114.377 17.5752V20.9187C114.377 21.1877 114.464 21.413 114.646 21.5947Z" fill="white"/>
<path d="M125.033 17.1318C124.967 16.6957 124.851 16.2887 124.669 15.9253C124.386 15.3511 123.979 14.8932 123.441 14.5661C122.91 14.239 122.271 14.0718 121.537 14.0718C120.802 14.0718 120.134 14.239 119.56 14.5733C118.985 14.9077 118.527 15.3729 118.2 15.9689C117.873 16.5576 117.713 17.2409 117.713 18.0041C117.713 18.76 117.888 19.4432 118.229 20.032C118.571 20.6207 119.051 21.0859 119.661 21.4203C120.265 21.7546 120.962 21.9218 121.733 21.9218C122.162 21.9218 122.62 21.8418 123.092 21.6819C123.564 21.522 123.964 21.3112 124.284 21.0641C124.56 20.8533 124.611 20.5989 124.597 20.4245C124.582 20.1919 124.473 19.9811 124.262 19.7994C124.095 19.6613 123.892 19.5959 123.674 19.5959C123.463 19.6031 123.274 19.6686 123.092 19.7994C122.939 19.9157 122.729 20.0174 122.474 20.1119C121.74 20.3736 121.064 20.25 120.534 19.952C120.192 19.7558 119.923 19.4941 119.727 19.1598C119.647 19.0289 119.589 18.8908 119.545 18.7382H124.204C124.451 18.7382 124.662 18.6582 124.829 18.4983C124.996 18.3384 125.084 18.1276 125.084 17.8878C125.084 17.6334 125.069 17.3862 125.033 17.1537L125.047 17.1391H125.033V17.1318ZM119.69 16.8193C119.85 16.485 120.083 16.2233 120.395 16.0343C120.708 15.8453 121.093 15.7436 121.537 15.7436C121.922 15.7436 122.242 15.8308 122.503 15.998C122.772 16.1724 122.968 16.405 123.121 16.7103C123.187 16.8411 123.237 16.9792 123.274 17.1318H119.574C119.603 17.0228 119.647 16.9211 119.69 16.8193Z" fill="white"/>
<path d="M127.846 14.3844C127.497 14.0355 126.85 14.0282 126.501 14.3916C126.334 14.5661 126.247 14.7914 126.247 15.0676V20.9187C126.247 21.1804 126.334 21.4057 126.494 21.5874C126.843 21.9581 127.497 21.9509 127.846 21.5874C128.02 21.4057 128.107 21.1804 128.107 20.9187V18.7164H131.625V20.9187C131.625 21.1877 131.72 21.413 131.894 21.5947C132.076 21.7764 132.301 21.8636 132.57 21.8636C132.846 21.8636 133.079 21.7692 133.246 21.5802C133.406 21.3985 133.486 21.1804 133.486 20.9187V15.0676C133.486 14.7987 133.406 14.5733 133.239 14.3989C132.912 14.05 132.265 14.0355 131.894 14.3916C131.712 14.5661 131.618 14.7987 131.618 15.0749V17.001H128.1V15.0749C128.107 14.7914 128.02 14.5661 127.846 14.3844Z" fill="white"/>
<path d="M144.352 21.602C144.527 21.7764 144.759 21.8709 145.028 21.8709C145.305 21.8709 145.537 21.7764 145.712 21.5947C145.886 21.413 145.973 21.1877 145.973 20.926V17.1682C145.973 16.5213 145.857 15.9616 145.624 15.5037C145.385 15.0313 145.05 14.6678 144.614 14.4207C144.185 14.1808 143.698 14.0573 143.153 14.0573C142.543 14.0573 141.983 14.1954 141.503 14.457C141.263 14.5879 141.052 14.7478 140.864 14.9295C140.682 14.726 140.471 14.5515 140.238 14.4207C139.373 13.9264 138.131 13.9337 137.251 14.4643C137.193 14.5007 137.135 14.537 137.077 14.5806C137.04 14.5152 136.989 14.457 136.939 14.3989C136.59 14.0573 135.95 14.0427 135.587 14.3989C135.405 14.5733 135.31 14.8059 135.31 15.0821V20.9333C135.31 21.1949 135.405 21.4275 135.579 21.6092C135.943 21.9727 136.59 21.9654 136.939 21.602C137.113 21.4203 137.2 21.1949 137.2 20.9333V17.2263C137.2 16.8048 137.324 16.4704 137.571 16.2015C137.818 15.9398 138.123 15.8163 138.501 15.8163C138.872 15.8163 139.155 15.9253 139.373 16.1361C139.592 16.3469 139.701 16.6957 139.701 17.1682V20.926C139.701 21.1949 139.795 21.4203 139.969 21.602C140.333 21.9654 140.98 21.9509 141.329 21.602C141.503 21.4203 141.59 21.1949 141.59 20.9333V17.2263C141.59 16.8048 141.714 16.4704 141.961 16.2015C142.201 15.9398 142.506 15.8163 142.884 15.8163C143.255 15.8163 143.538 15.9253 143.756 16.1361C143.974 16.3469 144.083 16.6957 144.083 17.1682V20.926C144.083 21.2022 144.171 21.4275 144.352 21.602Z" fill="white"/>
<path d="M154.594 17.1318C154.528 16.6957 154.412 16.2887 154.23 15.9253C153.947 15.3511 153.54 14.8932 153.002 14.5661C152.471 14.239 151.832 14.0718 151.098 14.0718C150.363 14.0718 149.695 14.239 149.121 14.5733C148.546 14.9077 148.088 15.3729 147.761 15.9689C147.434 16.5576 147.274 17.2409 147.274 18.0041C147.274 18.76 147.449 19.4432 147.79 20.032C148.132 20.6207 148.612 21.0859 149.222 21.4203C149.826 21.7546 150.523 21.9218 151.294 21.9218C151.723 21.9218 152.181 21.8418 152.653 21.6819C153.125 21.522 153.525 21.3112 153.845 21.0641C154.121 20.8533 154.172 20.5989 154.158 20.4245C154.143 20.1919 154.034 19.9811 153.823 19.7994C153.656 19.6613 153.453 19.5959 153.234 19.5959C153.024 19.6031 152.835 19.6686 152.653 19.7994C152.5 19.9157 152.29 20.0174 152.035 20.1119C151.301 20.3736 150.625 20.25 150.094 19.952C149.753 19.7558 149.484 19.4941 149.288 19.1598C149.208 19.0289 149.15 18.8908 149.106 18.7382H153.765C154.012 18.7382 154.223 18.6582 154.39 18.4983C154.557 18.3384 154.645 18.1276 154.645 17.8878C154.645 17.6334 154.63 17.3862 154.594 17.1537L154.608 17.1391H154.594V17.1318ZM149.251 16.8193C149.411 16.485 149.644 16.2233 149.956 16.0343C150.269 15.8453 150.654 15.7436 151.098 15.7436C151.483 15.7436 151.803 15.8308 152.064 15.998C152.333 16.1724 152.529 16.405 152.682 16.7103C152.747 16.8411 152.798 16.9792 152.835 17.1318H149.135C149.164 17.0228 149.208 16.9211 149.251 16.8193Z" fill="white"/>
<path d="M36.1608 15.3729C36.4224 14.9804 36.5533 14.537 36.5533 14.0573C36.5533 13.4758 36.4079 12.9452 36.1244 12.4945C35.841 12.0439 35.4485 11.6877 34.9542 11.4333C34.4672 11.1789 33.893 11.0554 33.2606 11.0554H30.1207C29.8517 11.0554 29.6264 11.1426 29.4447 11.3243C29.263 11.4988 29.1612 11.7386 29.1612 12.0148V20.9187C29.1612 21.1804 29.2557 21.4203 29.4374 21.602C29.6191 21.7837 29.8517 21.8782 30.1207 21.8782H33.5368C34.2346 21.8782 34.867 21.7328 35.4121 21.4493C35.9645 21.1586 36.4006 20.7588 36.7059 20.25C37.0185 19.7412 37.1711 19.1598 37.1711 18.5056C37.1711 17.7787 36.9749 17.1755 36.5824 16.7103C36.3134 16.3977 35.9936 16.1579 35.6084 15.9834C35.8264 15.7944 36.0081 15.5982 36.1608 15.3729ZM35.3104 18.4838C35.3104 18.8327 35.2377 19.1234 35.0923 19.3487C34.9469 19.5741 34.7434 19.7485 34.4818 19.8648C34.2128 19.9884 33.893 20.0465 33.5296 20.0465H31.0656V17.0664H33.5296C33.893 17.0664 34.2201 17.1246 34.489 17.2336C34.7434 17.3426 34.9469 17.4953 35.0923 17.6988C35.2449 17.9096 35.3104 18.1712 35.3104 18.4838ZM31.0728 15.2638V12.8507H33.2606C33.6968 12.8507 34.0529 12.9525 34.3291 13.156C34.5762 13.345 34.6998 13.6357 34.6998 14.05C34.6998 14.4643 34.5762 14.7551 34.3291 14.9513C34.0456 15.1621 33.704 15.2638 33.2606 15.2638H31.0728Z" fill="white"/>
<path d="M157.232 4.84809H29.4302C29.2266 4.84809 29.0667 5.008 29.0667 5.21151C29.0667 5.41503 29.2266 5.57494 29.4302 5.57494H157.232C158.235 5.57494 159.042 6.38901 159.042 7.38479V26.828C159.042 27.8311 158.228 28.6379 157.232 28.6379H61.1499C60.9464 28.6379 60.7864 28.7978 60.7864 29.0013C60.7864 29.2048 60.9464 29.3647 61.1499 29.3647H157.232C158.635 29.3647 159.769 28.2236 159.769 26.828V7.38479C159.769 5.98197 158.635 4.84809 157.232 4.84809Z" fill="white"/>
<path d="M67.0446 34.569H30.833C29.1031 34.569 27.5113 33.8131 27.017 32.7737L26.043 30.0916H45.6752C46.2785 30.0916 46.7655 29.6046 46.7655 29.0013C46.7655 28.398 46.2785 27.911 45.6752 27.911H25.2508L16.2887 3.19087C16.2814 3.1618 16.2669 3.13999 16.2596 3.11819C15.4238 1.25018 13.0833 0 10.4376 0H1.09027C0.486989 0 0 0.486989 0 1.09027C0 1.69356 0.486989 2.18055 1.09027 2.18055H10.4376C12.1675 2.18055 13.7593 2.93647 14.2535 3.97587L24.9746 33.5659C24.9818 33.595 24.9964 33.6168 25.0036 33.6386C25.8395 35.4993 28.18 36.7495 30.8257 36.7495H67.0374C67.6406 36.7495 68.1276 36.2625 68.1276 35.6593C68.1276 35.056 67.6406 34.569 67.0446 34.569Z" fill="white"/>
<path d="M56.9051 38.2105C53.6561 38.2105 51.0103 40.8562 51.0103 44.1052C51.0103 47.3543 53.6561 50 56.9051 50C60.1541 50 62.7998 47.3543 62.7998 44.1052C62.7998 40.8562 60.1541 38.2105 56.9051 38.2105ZM56.9051 48.0012C54.7536 48.0012 53.0092 46.2495 53.0092 44.1052C53.0092 41.961 54.7609 40.2093 56.9051 40.2093C59.0493 40.2093 60.801 41.961 60.801 44.1052C60.801 46.2495 59.0493 48.0012 56.9051 48.0012Z" fill="white"/>
<path d="M35.6883 38.2105C32.4393 38.2105 29.7936 40.8562 29.7936 44.1052C29.7936 47.3543 32.4393 50 35.6883 50C38.9373 50 41.5831 47.3543 41.5831 44.1052C41.5831 40.8562 38.9373 38.2105 35.6883 38.2105ZM35.6883 48.0012C33.5369 48.0012 31.7924 46.2495 31.7924 44.1052C31.7924 41.961 33.5441 40.2093 35.6883 40.2093C37.8325 40.2093 39.5842 41.961 39.5842 44.1052C39.5842 46.2495 37.8325 48.0012 35.6883 48.0012Z" fill="white"/>
</svg>
