<svg width="36" height="24" viewBox="0 0 36 24" fill="none" xmlns="http://www.w3.org/2000/svg">
<path d="M30.8221 15.0176C32.0021 16.2909 33.2466 17.4864 34.3043 18.8864C34.771 19.5087 35.2155 20.1509 35.5532 20.8731C36.0332 21.8998 35.5977 23.0287 34.7643 23.0909L29.5866 23.0864C28.2488 23.2109 27.1843 22.6153 26.2866 21.6064C25.571 20.7998 24.9066 19.9398 24.2155 19.1087C23.9449 18.7647 23.6312 18.457 23.2821 18.1931C22.5777 17.6864 21.9643 17.8398 21.5599 18.6553C21.1466 19.4842 21.0532 20.402 21.0132 21.3242C20.9577 22.6709 20.591 23.0264 19.3643 23.0864C16.7466 23.2242 14.2621 22.7864 11.9532 21.3264C9.91767 20.042 8.3399 18.2264 6.96434 16.1709C4.29101 12.1687 2.24434 7.77089 0.402118 3.24867C-0.0134373 2.23089 0.288785 1.68423 1.30878 1.66645C2.99821 1.63052 4.68819 1.62904 6.37767 1.66201C7.06434 1.67312 7.51767 2.10645 7.78434 2.82423C8.69767 5.30645 9.81545 7.66867 11.2199 9.85978C11.5955 10.442 11.9755 11.0242 12.5199 11.4353C13.1199 11.8887 13.5777 11.7376 13.8599 10.9998C14.0377 10.5309 14.1177 10.0264 14.1577 9.52423C14.291 7.79756 14.3088 6.07312 14.0755 4.35312C13.931 3.27978 13.3821 2.58423 12.4132 2.382C11.9177 2.27756 11.991 2.07312 12.231 1.76201C12.6488 1.22423 13.0399 0.888672 13.8221 0.888672H19.6754C20.5977 1.08867 20.8021 1.54645 20.9288 2.57089L20.9332 9.75312C20.9221 10.1487 21.111 11.3264 21.7599 11.5887C22.2755 11.7753 22.6177 11.3176 22.9288 10.9553C24.3288 9.31089 25.3288 7.37089 26.2243 5.35978C26.6199 4.47534 26.9621 3.55978 27.291 2.63978C27.5354 1.95978 27.9199 1.62423 28.6155 1.63978L34.2488 1.64645C34.4155 1.64645 34.5843 1.64645 34.7466 1.67756C35.6977 1.85534 35.9577 2.30867 35.6643 3.33312C35.2021 4.93978 34.3021 6.27756 33.4243 7.62201C32.4843 9.05756 31.4799 10.4442 30.5466 11.8887C29.691 13.2087 29.7599 13.8731 30.8221 15.0176Z" fill="white"/>
</svg>
