<svg width="33" height="22" viewBox="0 0 33 22" fill="none" xmlns="http://www.w3.org/2000/svg">
<path d="M27.8679 13.6627C28.9417 14.8214 30.0741 15.9094 31.0367 17.1834C31.4614 17.7496 31.8658 18.334 32.1732 18.9913C32.61 19.9255 32.2136 20.9528 31.4553 21.0094L26.7435 21.0054C25.5261 21.1186 24.5575 20.5767 23.7405 19.6586C23.0894 18.9245 22.4847 18.1419 21.8558 17.3856C21.6096 17.0726 21.3242 16.7926 21.0065 16.5525C20.3654 16.0914 19.8073 16.2309 19.4393 16.9731C19.0631 17.7274 18.9782 18.5626 18.9418 19.4018C18.8912 20.6272 18.5576 20.9508 17.4413 21.0054C15.0591 21.1308 12.7983 20.7324 10.6972 19.4038C8.84484 18.235 7.40906 16.5828 6.15731 14.7122C3.72457 11.0702 1.86211 7.06824 0.185684 2.95302C-0.192472 2.02684 0.0825502 1.52938 1.01075 1.5132C2.54813 1.4805 4.08601 1.47916 5.62344 1.50915C6.24831 1.51926 6.66084 1.9136 6.90351 2.56678C7.73464 4.8256 8.75182 6.97522 10.0299 8.96913C10.3716 9.49895 10.7174 10.0288 11.2129 10.4029C11.7589 10.8154 12.1754 10.6779 12.4323 10.0065C12.594 9.57984 12.6668 9.1208 12.7032 8.66378C12.8246 7.09251 12.8408 5.52326 12.6284 3.95806C12.497 2.98133 11.9975 2.34838 11.1158 2.16435C10.6648 2.06931 10.7316 1.88326 10.95 1.60015C11.3302 1.11078 11.6861 0.80542 12.3979 0.80542H17.7244C18.5636 0.98742 18.7497 1.404 18.865 2.33624L18.869 8.87206C18.8589 9.23202 19.0308 10.3038 19.6213 10.5424C20.0904 10.7123 20.4018 10.2957 20.685 9.96609C21.959 8.46964 22.869 6.70424 23.6839 4.87413C24.0439 4.06929 24.3553 3.23613 24.6546 2.39893C24.877 1.78013 25.2269 1.47478 25.8598 1.48893L30.9862 1.495C31.1378 1.495 31.2915 1.495 31.4391 1.52331C32.3046 1.68509 32.5412 2.09762 32.2743 3.02986C31.8537 4.49193 31.0347 5.70931 30.2359 6.93275C29.3805 8.23911 28.4665 9.50098 27.6171 10.8154C26.8386 12.0166 26.9013 12.6213 27.8679 13.6627Z" fill="#566173"/>
</svg>
