<svg width="186" height="80" viewBox="0 0 186 80" fill="none" xmlns="http://www.w3.org/2000/svg">
<path fill-rule="evenodd" clip-rule="evenodd" d="M35.6017 12.2744L58.7443 25.7184L58.7916 52.2113L57.7916 52.2131L57.7453 26.2946L35.6162 13.4393L13.9837 26.7372L13.46 25.8853L35.6017 12.2744ZM35.6016 18.31L53.3978 28.6481L53.4689 49.1164L52.469 49.1199L52.3998 29.2248L35.6164 19.4751L19.0375 29.6787L18.5134 28.8271L35.6016 18.31ZM35.6018 24.6269L48.1108 31.8947L48.1346 46.0231L47.1346 46.0248L47.1117 32.4708L35.6162 25.7918L24.3131 32.7376L23.7895 31.8856L35.6018 24.6269ZM35.6021 30.8149L43.3492 35.3289L43.3735 43.2566L42.3735 43.2597L42.351 35.9046L35.6159 31.9803L29.4837 35.7497L28.96 34.8978L35.6021 30.8149Z" fill="url(#paint0_linear)"/>
<path fill-rule="evenodd" clip-rule="evenodd" d="M35.0124 0L0 19.9941V59.6894L35.0124 80L43.0563 75.4064L47.272 77.8201L51.7991 75.101L47.7374 72.7333L49.3433 71.8162L53.6474 74.2925L58.1746 71.5617L54.0274 69.1413L55.9361 68.0513L59.6719 70.2138L64.1991 67.4948L60.6025 65.3865L62.7546 64.1576L65.8368 65.9361L70.364 63.2171L67.416 61.4956L70.0248 60.0059V19.9941L35.0124 0ZM41.5002 69.0973L43.0642 68.2038L9.21808 48.7314V42.9886L47.7925 65.5023L49.6749 64.4269L9.21808 41.0078V35.2651L54.3799 61.7388L56.4817 60.538L9.2298 33.2728V27.5183L61.1796 57.8539L63.7312 56.3961V23.5921L35.0124 7.1843L6.29357 23.5921V56.15L35.0124 72.804L36.7635 71.8035L9.21808 56.0328V50.2783L41.5002 69.0973Z" fill="url(#paint1_linear)"/>
<path d="M85.6646 32.9212H88.2967V20.2637H90.6597V32.9212H91.8412V36.7184H89.4782V35.0308H83.3484V20.2637H85.6646V32.9212Z" fill="#161615"/>
<path d="M96.7197 20.2637C97.9247 20.2637 98.802 20.545 99.3401 21.1075C99.8782 21.6701 100.147 22.5257 100.147 23.6625V24.1899C100.147 24.9517 100.03 25.5728 99.7846 26.0651C99.539 26.5573 99.1646 26.9206 98.6499 27.1667C99.2816 27.4011 99.7262 27.7996 99.9835 28.3387C100.241 28.8778 100.37 29.5459 100.37 30.3311V31.5382C100.37 32.6751 100.077 33.5424 99.4805 34.1401C98.8956 34.7378 98.0182 35.0425 96.8484 35.0425H93.2103V20.2754H96.7197V20.2637ZM95.5382 22.3733V26.276H96.439C96.8718 26.276 97.2111 26.1588 97.4567 25.9361C97.7024 25.7135 97.8194 25.3033 97.8194 24.7173V23.8969C97.8194 23.3578 97.7258 22.971 97.5386 22.7366C97.3514 22.5022 97.0473 22.3733 96.6379 22.3733H95.5382ZM95.5382 28.3856V32.9212H96.8601C97.2579 32.9212 97.5503 32.8157 97.7609 32.6048C97.9597 32.3938 98.065 32.0188 98.065 31.4679V30.1787C98.065 29.4873 97.948 29.0185 97.7141 28.7606C97.4801 28.5028 97.1058 28.3856 96.5677 28.3856H95.5382Z" fill="#161615"/>
<path d="M104.616 26.487H107.798V28.5966H104.616V32.9212H108.617V35.0308H102.3V20.2637H108.617V22.3733H104.616V26.487Z" fill="#161615"/>
<path d="M109.903 20.2637H117.063V22.3733H114.641V35.0308H112.325V22.3733H109.903V20.2637Z" fill="#161615"/>
<path d="M120.982 35.0308H118.665V20.2637H120.982V26.5925H123.614V20.2637H125.977V35.0308H123.614V28.702H120.982V35.0308Z" fill="#161615"/>
<path d="M135.674 35.0308H133.335L132.937 32.3469H130.094L129.697 35.0308H127.568L129.931 20.2637H133.323L135.674 35.0308ZM130.387 30.3428H132.621L131.51 22.8773L130.387 30.3428Z" fill="#161615"/>
<path d="M136.856 35.0308C136.973 34.7495 137.043 34.4682 137.067 34.1987C137.09 33.9291 137.113 33.601 137.113 33.2376V30.964C137.113 30.1905 137.219 29.5342 137.441 28.995C137.663 28.4559 138.061 28.0692 138.657 27.823C137.651 27.3425 137.137 26.3463 137.137 24.8228V23.6625C137.137 22.5257 137.406 21.6701 137.944 21.1075C138.482 20.545 139.359 20.2637 140.564 20.2637H144.062V35.0308H141.746V29.0185H140.95C140.412 29.0185 140.026 29.1591 139.792 29.4404C139.558 29.7217 139.43 30.2022 139.43 30.8937V33.2142C139.43 33.5072 139.43 33.7533 139.418 33.9525C139.406 34.1518 139.394 34.3159 139.371 34.4331C139.348 34.562 139.324 34.6675 139.301 34.7495C139.277 34.8315 139.242 34.9253 139.219 35.0191H136.856V35.0308ZM140.623 22.3733C140.213 22.3733 139.921 22.4905 139.734 22.7366C139.547 22.971 139.453 23.3578 139.453 23.8969V25.3501C139.453 25.9361 139.57 26.3463 139.827 26.569C140.073 26.7917 140.412 26.9089 140.845 26.9089H141.746V22.3733H140.623Z" fill="#161615"/>
<path d="M88.2738 53.0208L89.853 42.5315H93.07V57.2986H90.8824V46.7038L89.2798 57.2986H87.0922L85.3609 46.8562V57.2986H83.3372V42.5315H86.5658L88.2738 53.0208Z" fill="#161615"/>
<path d="M97.6205 48.7548H100.802V50.8644H97.6205V55.189H101.621V57.2986H95.3043V42.5315H101.621V44.6411H97.6205V48.7548Z" fill="#161615"/>
<path d="M102.908 42.5315H110.067V44.6411H107.646V57.2986H105.33V44.6411H102.908V42.5315Z" fill="#161615"/>
<path d="M119.145 57.2986H116.805L116.408 54.6147H113.565L113.167 57.2986H111.038L113.401 42.5315H116.794L119.145 57.2986ZM113.857 52.6106H116.092L114.98 45.1451L113.857 52.6106Z" fill="#161615"/>
<path d="M127.252 44.641H124.561V53.6302C124.561 54.3802 124.468 54.9897 124.292 55.4702C124.105 55.9507 123.859 56.3257 123.555 56.5953C123.251 56.8648 122.888 57.0641 122.491 57.1813C122.093 57.2985 121.672 57.3454 121.239 57.3454C121.028 57.3454 120.841 57.3454 120.666 57.3454C120.502 57.3454 120.315 57.3336 120.116 57.2985V55.1889C120.245 55.2006 120.373 55.2123 120.514 55.2123C120.654 55.2123 120.783 55.2123 120.911 55.2123C121.274 55.2123 121.59 55.1186 121.847 54.9428C122.105 54.7553 122.233 54.3802 122.233 53.806V42.5431H129.556V57.3102H127.24V44.641H127.252Z" fill="#161615"/>
<path d="M138.306 44.641H135.616V53.6302C135.616 54.3802 135.522 54.9897 135.347 55.4702C135.171 55.9507 134.914 56.3257 134.61 56.5953C134.306 56.8648 133.943 57.0641 133.545 57.1813C133.148 57.2985 132.726 57.3454 132.294 57.3454C132.083 57.3454 131.896 57.3454 131.72 57.3454C131.557 57.3454 131.37 57.3336 131.171 57.2985V55.1889C131.299 55.2006 131.428 55.2123 131.568 55.2123C131.709 55.2123 131.837 55.2123 131.966 55.2123C132.329 55.2123 132.645 55.1186 132.902 54.9428C133.159 54.767 133.288 54.3802 133.288 53.806V42.5431H140.611V57.3102H138.295V44.641H138.306Z" fill="#161615"/>
<path d="M143.489 55.1889C143.617 55.2006 143.746 55.2124 143.886 55.2124C144.027 55.2124 144.156 55.2124 144.284 55.2124C144.471 55.2124 144.635 55.1889 144.799 55.1538C144.963 55.1069 145.103 55.0366 145.22 54.9194C145.337 54.8022 145.431 54.6498 145.489 54.4388C145.548 54.2279 145.583 53.9583 145.583 53.6419L142.214 42.5431H144.53L147.08 51.1924L149.186 42.5431H151.502L148.472 53.4309C148.203 54.4388 147.934 55.2241 147.665 55.7632C147.396 56.3023 147.103 56.6891 146.788 56.9235C146.483 57.1579 146.144 57.2868 145.793 57.3102C145.431 57.3337 145.033 57.3571 144.6 57.3571C144.389 57.3571 144.202 57.3571 144.027 57.3571C143.863 57.3571 143.676 57.3454 143.477 57.3102V55.1889H143.489Z" fill="#161615"/>
<path d="M156.52 42.5316C157.69 42.5316 158.556 42.8363 159.117 43.4575C159.691 44.0786 159.971 44.9811 159.971 46.1765V48.0986C159.971 49.294 159.691 50.1964 159.117 50.8176C158.544 51.4387 157.679 51.7434 156.52 51.7434H155.421V57.287H153.105V42.5199H156.52V42.5316ZM155.421 44.6412V49.6456H156.52C156.883 49.6456 157.164 49.5518 157.363 49.3526C157.562 49.1534 157.655 48.79 157.655 48.2509V46.0359C157.655 45.4967 157.562 45.1334 157.363 44.9342C157.164 44.735 156.883 44.6412 156.52 44.6412H155.421Z" fill="#161615"/>
<path d="M163.89 57.2986H161.574V42.5315H167.704V44.6411H163.89V57.2986Z" fill="#161615"/>
<path d="M171.681 57.2986H169.306V42.5315H171.365V51.3683L173.74 42.5315H176.641V57.2986H174.559V46.5983L171.681 57.2986Z" fill="#161615"/>
<path d="M178.454 57.2986C178.571 57.0173 178.642 56.736 178.665 56.4665C178.688 56.1969 178.712 55.8688 178.712 55.5054V53.2318C178.712 52.4583 178.817 51.802 179.039 51.2628C179.262 50.7237 179.659 50.337 180.256 50.0909C179.25 49.6103 178.735 48.6141 178.735 47.0906V45.9303C178.735 44.7935 179.004 43.9379 179.542 43.3753C180.08 42.8128 180.958 42.5315 182.163 42.5315H185.66V57.2986H183.344V51.2863H182.549C182.011 51.2863 181.625 51.4269 181.391 51.7082C181.157 51.9895 181.028 52.47 181.028 53.1615V55.482C181.028 55.775 181.028 56.0211 181.016 56.2204C181.005 56.4196 180.993 56.5837 180.969 56.7009C180.946 56.8298 180.923 56.9353 180.899 57.0173C180.876 57.0993 180.841 57.1931 180.817 57.2869H178.454V57.2986ZM182.233 44.6411C181.823 44.6411 181.531 44.7583 181.332 45.0044C181.145 45.2388 181.051 45.6256 181.051 46.1647V47.618C181.051 48.2039 181.168 48.6141 181.414 48.8368C181.66 49.0595 181.999 49.1767 182.432 49.1767H183.332V44.6411H182.233Z" fill="#161615"/>
<defs>
<linearGradient id="paint0_linear" x1="9.21235" y1="64.052" x2="51.7976" y2="64.052" gradientUnits="userSpaceOnUse">
<stop stop-color="#FBBF00"/>
<stop offset="1" stop-color="#F76B00"/>
</linearGradient>
<linearGradient id="paint1_linear" x1="9.21235" y1="64.052" x2="51.7976" y2="64.052" gradientUnits="userSpaceOnUse">
<stop stop-color="#FBBF00"/>
<stop offset="1" stop-color="#F76B00"/>
</linearGradient>
</defs>
</svg>
