<svg width="195" height="68" viewBox="0 0 195 68" fill="none" xmlns="http://www.w3.org/2000/svg">
<g clip-path="url(#clip0)">
<path d="M83.6184 29.3237V32.5809C82.5687 33.1386 81.3951 33.4175 80.1037 33.4175C78.0278 33.4175 76.2999 32.753 74.9082 31.424C73.3867 29.9526 72.626 28.1311 72.626 25.9596C72.626 23.6457 73.3867 21.7827 74.9082 20.3647C76.241 19.1069 77.9807 18.478 80.1272 18.478C81.3775 18.478 82.5392 18.7687 83.6184 19.3561V22.6134C82.6925 21.5395 81.5544 21.0055 80.1862 21.0055C78.7945 21.0055 77.6622 21.492 76.7894 22.471C75.9166 23.4499 75.4802 24.6247 75.4802 25.9952C75.4802 27.4963 75.9638 28.6829 76.9309 29.5669C77.8981 30.445 79.0186 30.8841 80.2983 30.8841C81.631 30.89 82.7338 30.3679 83.6184 29.3237Z" fill="#071E3F"/>
<path d="M93.8381 21.2016H90.6418V33.0974H87.8701V21.2016H84.6738V18.8047H93.8322V21.2016H93.8381Z" fill="#071E3F"/>
<path d="M105.132 33.0968L103.876 30.0947H98.1435L96.8874 33.0968H93.8857L100.042 18.5015H102.13L108.116 33.0968H105.132ZM99.0163 27.8223H103.062L101.063 22.6783L99.0163 27.8223Z" fill="#071E3F"/>
<path d="M111.135 18.8047H120.806V33.0974H118.035V21.2016H113.901V27.5441C113.901 28.0899 113.895 28.4934 113.877 28.7663C113.865 29.0392 113.812 29.4249 113.73 29.9233C113.647 30.4216 113.488 30.8607 113.264 31.2404C113.034 31.6201 112.739 31.9642 112.367 32.2787C111.63 32.9076 110.687 33.222 109.537 33.222C109.136 33.222 108.747 33.1805 108.363 33.0915V30.6946C108.646 30.7776 108.912 30.8251 109.154 30.8251C109.667 30.8251 110.091 30.653 110.433 30.3089C110.657 30.0834 110.828 29.769 110.934 29.3655C111.041 28.968 111.1 28.6239 111.117 28.3391C111.129 28.0543 111.141 27.6034 111.141 26.9864V18.8047H111.135Z" fill="#071E3F"/>
<path d="M124.043 33.0974V18.8047H126.815V24.3996H129.032C130.506 24.3996 131.674 24.7912 132.523 25.5802C133.402 26.3931 133.844 27.461 133.844 28.7722C133.844 29.7453 133.591 30.5996 133.078 31.3472C132.281 32.516 130.943 33.1034 129.05 33.1034H124.043V33.0974ZM126.815 26.7965V30.6946H128.431C130.135 30.6946 130.984 30.0478 130.984 28.7663C130.984 28.2264 130.795 27.7577 130.418 27.372C130.04 26.9864 129.392 26.7965 128.466 26.7965H126.815Z" fill="#071E3F"/>
<path d="M138.657 18.8047V24.3343H144.667V18.8047H147.438V33.0974H144.667V26.7313H138.657V33.0974H135.886V18.8047H138.657Z" fill="#071E3F"/>
<path d="M160.341 33.0968L159.085 30.0947H153.353L152.096 33.0968H149.095L155.251 18.5015H157.339L163.325 33.0968H160.341ZM154.231 27.8223H158.277L156.278 22.6783L154.231 27.8223Z" fill="#071E3F"/>
<path d="M173.846 18.8047V33.0974H171.074V27.5678H170.561L166.94 33.0974H163.62L167.837 27.3127C167.27 27.2296 166.752 27.0101 166.28 26.6719C165.212 25.9006 164.682 24.7496 164.682 23.2189C164.682 21.8305 165.153 20.727 166.085 19.8964C166.911 19.1666 168.126 18.8047 169.73 18.8047H173.846ZM171.08 21.0711H170.231C170.001 21.0711 169.783 21.0889 169.57 21.1126C169.358 21.1423 169.075 21.2135 168.721 21.3381C168.367 21.4568 168.084 21.6822 167.872 22.0026C167.66 22.323 167.554 22.7264 167.554 23.213C167.554 24.6547 168.462 25.3785 170.278 25.3785H171.086V21.0711H171.08Z" fill="#071E3F"/>
<path d="M79.1424 57.6247V55.655H78.7591C77.0961 55.655 75.7633 55.299 74.7549 54.5811C73.3336 53.5665 72.626 52.0536 72.626 50.0364C72.626 48.0191 73.3336 46.5062 74.7549 45.4916C75.7633 44.7797 77.0961 44.4178 78.7591 44.4178H79.1424V42.7446H81.9141V44.4178H82.2974C83.9605 44.4178 85.2932 44.7737 86.3017 45.4916C87.7229 46.5062 88.4305 48.0191 88.4305 50.0364C88.4305 52.0477 87.7229 53.5665 86.3017 54.5811C85.2932 55.2931 83.9605 55.655 82.2974 55.655H81.9141V57.6247H79.1424ZM79.1424 53.2521V46.8266H78.7178C77.8627 46.8266 77.1668 47.0283 76.6302 47.4258C75.8636 47.9954 75.4802 48.8675 75.4802 50.0423C75.4802 51.1696 75.8636 52.0417 76.6302 52.6588C77.1433 53.0622 77.8391 53.258 78.7178 53.258H79.1424V53.2521ZM81.9141 46.8266V53.258H82.3387C83.2351 53.258 83.9369 53.0563 84.4499 52.6588C85.2048 52.0714 85.5763 51.1992 85.5763 50.0423C85.5763 48.8557 85.1989 47.9835 84.4499 47.4258C83.9074 47.0283 83.2056 46.8266 82.3387 46.8266H81.9141Z" fill="#071E3F"/>
<path d="M98.8689 43.3315V45.7285H93.756V48.9205H98.6566V51.3234H93.756V55.2214H98.8689V57.6184H90.9902V43.3315H98.8689Z" fill="#071E3F"/>
<path d="M102.914 43.3315H112.497V55.2273H113.989V60.84H111.436V57.6243H102.702V60.84H100.148V55.2273C100.632 55.2392 101.074 55.0671 101.469 54.6993C101.865 54.3374 102.177 53.8687 102.407 53.2932C102.749 52.421 102.92 51.1691 102.92 49.5435V43.3315H102.914ZM105.597 45.7344V49.5494C105.597 51.3352 105.432 52.6643 105.108 53.5364C104.854 54.195 104.483 54.7586 103.999 55.2273H109.731V45.7344H105.597Z" fill="#071E3F"/>
<path d="M123.708 43.3315V45.7285H118.595V48.9205H123.496V51.3234H118.595V55.2214H123.708V57.6184H115.829V43.3315H123.708Z" fill="#071E3F"/>
<path d="M126.392 43.3315H130.526C131.404 43.3315 132.124 43.4087 132.69 43.557C133.25 43.7053 133.781 43.996 134.276 44.4232C135.243 45.2776 135.727 46.4286 135.727 47.8763C135.727 49.2171 135.338 50.2851 134.553 51.0683C133.716 51.9108 132.513 52.332 130.956 52.332H129.169V57.6243H126.397V43.3315H126.392ZM129.157 45.7344V49.935H130.284C131.092 49.935 131.699 49.7867 132.094 49.4841C132.607 49.0866 132.861 48.5289 132.861 47.811C132.861 47.1109 132.595 46.571 132.071 46.1853C131.646 45.8828 130.991 45.7344 130.113 45.7344H129.157Z" fill="#071E3F"/>
<path d="M146.517 57.6246L145.261 54.6225H139.529L138.273 57.6246H135.271L141.428 43.0293H143.516L149.501 57.6246H146.517ZM140.402 52.3561H144.448L142.448 47.2121L140.402 52.3561Z" fill="#071E3F"/>
<path d="M151.16 57.6243V43.3315H153.932V55.2273H159.558V43.3315H162.329V55.2273H164.034V60.84H161.48V57.6243H151.16Z" fill="#071E3F"/>
<path d="M165.861 43.3317H168.633V52.9314L176.47 43.0054H178.387V57.6185H175.615V47.9832L167.778 57.9033H165.861V43.3317Z" fill="#071E3F"/>
<path d="M190.483 43.3315V57.6243H187.711V52.0947H187.198L183.577 57.6243H180.257L184.473 51.8396C183.907 51.7565 183.388 51.537 182.917 51.1988C181.849 50.4275 181.318 49.2765 181.318 47.7457C181.318 46.3574 181.79 45.2539 182.722 44.4232C183.548 43.6935 184.762 43.3315 186.366 43.3315H190.483ZM187.717 45.6039H186.868C186.638 45.6039 186.419 45.6217 186.207 45.6454C185.995 45.6751 185.712 45.7463 185.358 45.8709C185.004 45.9896 184.721 46.215 184.509 46.5354C184.296 46.8558 184.19 47.2592 184.19 47.7457C184.19 49.1875 185.098 49.9113 186.915 49.9113H187.723V45.6039H187.717Z" fill="#071E3F"/>
<path d="M44.7509 54.5807C26.5466 63.891 8.27769 64.4891 3.94795 55.92C1.39534 50.8683 4.29691 43.7556 10.8174 36.8574C1.97695 44.9714 -2.17832 54.2361 1.13038 60.7897C5.88664 70.204 24.2331 70.4316 42.1079 61.2968C54.4896 54.9708 63.3818 45.8101 66.1153 37.6506C61.5982 43.6516 54.1084 49.8021 44.7509 54.5807Z" fill="#C6C7CA"/>
<path d="M19.6831 55.5496V29.0752L13.2402 32.8266V55.4846C15.2112 55.7122 17.3761 55.7317 19.6831 55.5496Z" fill="#071E3F"/>
<path d="M23.2121 55.6276C24.8729 55.3675 26.5919 55.0034 28.3497 54.5548V15.4023L18.0811 21.2798V26.3445L23.2186 23.3083V55.6276H23.2121Z" fill="#071E3F"/>
<path d="M39.4264 50.6993V14.5895L44.8612 17.8338V7.29477L31.7686 0V53.0854C31.7686 53.0854 35.6589 53.0854 39.4264 50.6993Z" fill="#071E3F"/>
<path d="M43.4647 48.7879C46.418 47.2795 49.158 45.6216 51.7042 43.8857V25.3302L43.4453 21.0781V48.8009C43.4582 48.7944 43.4647 48.7944 43.4647 48.7879Z" fill="#071E3F"/>
</g>
<defs>
<clipPath id="clip0">
<rect width="195" height="68" fill="white"/>
</clipPath>
</defs>
</svg>
