<svg width="195" height="68" viewBox="0 0 195 68" fill="none" xmlns="http://www.w3.org/2000/svg">
<g clip-path="url(#clip0)">
<path d="M83.6186 29.3237V32.5809C82.5689 33.1386 81.3954 33.4175 80.1039 33.4175C78.0281 33.4175 76.3002 32.753 74.9084 31.424C73.387 29.9526 72.6262 28.1311 72.6262 25.9596C72.6262 23.6457 73.387 21.7827 74.9084 20.3647C76.2412 19.1069 77.9809 18.478 80.1275 18.478C81.3777 18.478 82.5394 18.7687 83.6186 19.3561V22.6134C82.6928 21.5395 81.5546 21.0055 80.1865 21.0055C78.7947 21.0055 77.6624 21.492 76.7897 22.471C75.9169 23.4499 75.4805 24.6247 75.4805 25.9952C75.4805 27.4963 75.964 28.6829 76.9312 29.5669C77.8983 30.445 79.0188 30.8841 80.2985 30.8841C81.6313 30.89 82.7341 30.3679 83.6186 29.3237Z" fill="#071E3F"/>
<path d="M93.8379 21.2016H90.6416V33.0974H87.8699V21.2016H84.6736V18.8047H93.832V21.2016H93.8379Z" fill="#071E3F"/>
<path d="M105.132 33.0968L103.876 30.0947H98.1435L96.8874 33.0968H93.8857L100.042 18.5015H102.13L108.116 33.0968H105.132ZM99.0163 27.8223H103.062L101.063 22.6783L99.0163 27.8223Z" fill="#071E3F"/>
<path d="M111.135 18.8047H120.807V33.0974H118.035V21.2016H113.901V27.5441C113.901 28.0899 113.895 28.4934 113.877 28.7663C113.866 29.0392 113.813 29.4249 113.73 29.9233C113.647 30.4216 113.488 30.8607 113.264 31.2404C113.034 31.6201 112.739 31.9642 112.368 32.2787C111.631 32.9076 110.687 33.222 109.537 33.222C109.136 33.222 108.747 33.1805 108.364 33.0915V30.6946C108.647 30.7776 108.912 30.8251 109.154 30.8251C109.667 30.8251 110.091 30.653 110.433 30.3089C110.658 30.0834 110.829 29.769 110.935 29.3655C111.041 28.968 111.1 28.6239 111.118 28.3391C111.129 28.0543 111.141 27.6034 111.141 26.9864V18.8047H111.135Z" fill="#071E3F"/>
<path d="M124.043 33.0974V18.8047H126.815V24.3996H129.033C130.507 24.3996 131.674 24.7912 132.524 25.5802C133.402 26.3931 133.845 27.461 133.845 28.7722C133.845 29.7453 133.591 30.5996 133.078 31.3472C132.282 32.516 130.943 33.1034 129.05 33.1034H124.043V33.0974ZM126.815 26.7965V30.6946H128.431C130.135 30.6946 130.985 30.0478 130.985 28.7663C130.985 28.2264 130.796 27.7577 130.418 27.372C130.041 26.9864 129.392 26.7965 128.466 26.7965H126.815Z" fill="#071E3F"/>
<path d="M138.658 18.8047V24.3343H144.667V18.8047H147.439V33.0974H144.667V26.7313H138.658V33.0974H135.886V18.8047H138.658Z" fill="#071E3F"/>
<path d="M160.341 33.0968L159.085 30.0947H153.353L152.097 33.0968H149.095L155.252 18.5015H157.34L163.325 33.0968H160.341ZM154.232 27.8223H158.277L156.278 22.6783L154.232 27.8223Z" fill="#071E3F"/>
<path d="M173.846 18.8047V33.0974H171.074V27.5678H170.561L166.94 33.0974H163.62L167.837 27.3127C167.271 27.2296 166.752 27.0101 166.28 26.6719C165.213 25.9006 164.682 24.7496 164.682 23.2189C164.682 21.8305 165.154 20.727 166.085 19.8964C166.911 19.1666 168.126 18.8047 169.73 18.8047H173.846ZM171.08 21.0711H170.231C170.001 21.0711 169.783 21.0889 169.571 21.1126C169.358 21.1423 169.075 21.2135 168.721 21.3381C168.368 21.4568 168.085 21.6822 167.872 22.0026C167.66 22.323 167.554 22.7264 167.554 23.213C167.554 24.6547 168.462 25.3785 170.278 25.3785H171.086V21.0711H171.08Z" fill="#071E3F"/>
<path d="M79.1427 57.6247V55.655H78.7593C77.0963 55.655 75.7635 55.299 74.7551 54.5811C73.3339 53.5665 72.6262 52.0536 72.6262 50.0364C72.6262 48.0191 73.3339 46.5062 74.7551 45.4916C75.7635 44.7797 77.0963 44.4178 78.7593 44.4178H79.1427V42.7446H81.9144V44.4178H82.2977C83.9607 44.4178 85.2935 44.7737 86.3019 45.4916C87.7231 46.5062 88.4308 48.0191 88.4308 50.0364C88.4308 52.0477 87.7231 53.5665 86.3019 54.5811C85.2935 55.2931 83.9607 55.655 82.2977 55.655H81.9144V57.6247H79.1427ZM79.1427 53.2521V46.8266H78.7181C77.863 46.8266 77.1671 47.0283 76.6304 47.4258C75.8638 47.9954 75.4805 48.8675 75.4805 50.0423C75.4805 51.1696 75.8638 52.0417 76.6304 52.6588C77.1435 53.0622 77.8394 53.258 78.7181 53.258H79.1427V53.2521ZM81.9144 46.8266V53.258H82.339C83.2353 53.258 83.9371 53.0563 84.4502 52.6588C85.205 52.0714 85.5765 51.1992 85.5765 50.0423C85.5765 48.8557 85.1991 47.9835 84.4502 47.4258C83.9076 47.0283 83.2059 46.8266 82.339 46.8266H81.9144Z" fill="#071E3F"/>
<path d="M98.8692 43.3315V45.7285H93.7563V48.9205H98.6569V51.3234H93.7563V55.2214H98.8692V57.6184H90.9905V43.3315H98.8692Z" fill="#071E3F"/>
<path d="M102.914 43.3315H112.497V55.2273H113.989V60.84H111.436V57.6243H102.702V60.84H100.149V55.2273C100.632 55.2392 101.075 55.0671 101.47 54.6993C101.865 54.3374 102.177 53.8687 102.407 53.2932C102.749 52.421 102.92 51.1691 102.92 49.5435V43.3315H102.914ZM105.598 45.7344V49.5494C105.598 51.3352 105.433 52.6643 105.108 53.5364C104.855 54.195 104.483 54.7586 104 55.2273H109.732V45.7344H105.598Z" fill="#071E3F"/>
<path d="M123.708 43.3315V45.7285H118.595V48.9205H123.496V51.3234H118.595V55.2214H123.708V57.6184H115.829V43.3315H123.708Z" fill="#071E3F"/>
<path d="M126.392 43.3315H130.526C131.404 43.3315 132.124 43.4087 132.69 43.557C133.25 43.7053 133.781 43.996 134.276 44.4232C135.243 45.2776 135.727 46.4286 135.727 47.8763C135.727 49.2171 135.338 50.2851 134.553 51.0683C133.716 51.9108 132.513 52.332 130.956 52.332H129.169V57.6243H126.397V43.3315H126.392ZM129.157 45.7344V49.935H130.284C131.092 49.935 131.699 49.7867 132.094 49.4841C132.607 49.0866 132.861 48.5289 132.861 47.811C132.861 47.1109 132.595 46.571 132.071 46.1853C131.646 45.8828 130.991 45.7344 130.113 45.7344H129.157Z" fill="#071E3F"/>
<path d="M146.518 57.6246L145.262 54.6225H139.53L138.274 57.6246H135.272L141.429 43.0293H143.516L149.502 57.6246H146.518ZM140.403 52.3561H144.448L142.449 47.2121L140.403 52.3561Z" fill="#071E3F"/>
<path d="M151.16 57.6243V43.3315H153.932V55.2273H159.558V43.3315H162.329V55.2273H164.034V60.84H161.48V57.6243H151.16Z" fill="#071E3F"/>
<path d="M165.862 43.3317H168.634V52.9314L176.471 43.0054H178.387V57.6185H175.616V47.9832L167.778 57.9033H165.862V43.3317Z" fill="#071E3F"/>
<path d="M190.483 43.3315V57.6243H187.711V52.0947H187.198L183.577 57.6243H180.257L184.473 51.8396C183.907 51.7565 183.388 51.537 182.917 51.1988C181.849 50.4275 181.318 49.2765 181.318 47.7457C181.318 46.3574 181.79 45.2539 182.722 44.4232C183.548 43.6935 184.762 43.3315 186.366 43.3315H190.483ZM187.717 45.6039H186.868C186.638 45.6039 186.419 45.6217 186.207 45.6454C185.995 45.6751 185.712 45.7463 185.358 45.8709C185.004 45.9896 184.721 46.215 184.509 46.5354C184.296 46.8558 184.19 47.2592 184.19 47.7457C184.19 49.1875 185.098 49.9113 186.915 49.9113H187.723V45.6039H187.717Z" fill="#071E3F"/>
<path d="M44.7514 54.5807C26.5471 63.891 8.27818 64.4891 3.94844 55.92C1.39583 50.8683 4.2974 43.7556 10.8179 36.8574C1.97743 44.9714 -2.17783 54.2361 1.13087 60.7897C5.88713 70.204 24.2336 70.4316 42.1083 61.2968C54.4901 54.9708 63.3822 45.8101 66.1158 37.6506C61.5987 43.6516 54.1088 49.8021 44.7514 54.5807Z" fill="#C6C7CA"/>
<path d="M19.6839 55.5496V29.0752L13.241 32.8266V55.4846C15.212 55.7122 17.3768 55.7317 19.6839 55.5496Z" fill="#071E3F"/>
<path d="M23.2124 55.6276C24.8732 55.3675 26.5922 55.0034 28.3499 54.5548V15.4023L18.0813 21.2798V26.3445L23.2188 23.3083V55.6276H23.2124Z" fill="#071E3F"/>
<path d="M39.4269 50.6993V14.5895L44.8617 17.8338V7.29477L31.769 0V53.0854C31.769 53.0854 35.6594 53.0854 39.4269 50.6993Z" fill="#071E3F"/>
<path d="M43.4654 48.7879C46.4187 47.2795 49.1587 45.6216 51.7049 43.8857V25.3302L43.446 21.0781V48.8009C43.459 48.7944 43.4654 48.7944 43.4654 48.7879Z" fill="#071E3F"/>
</g>
<defs>
<clipPath id="clip0">
<rect width="195" height="68" fill="white"/>
</clipPath>
</defs>
</svg>
